<?xml version="1.0" encoding="utf-8"?>
<!-- Generator: Adobe Illustrator 18.1.0, SVG Export Plug-In . SVG Version: 6.00 Build 0)  -->
<svg version="1.1" width="900" height="300"
	 xmlns="http://www.w3.org/2000/svg" xmlns:xlink="http://www.w3.org/1999/xlink" x="0px" y="0px" viewBox="0 0 900 300" xml:space="preserve">

<filter  id="Shadow_1" filterUnits="objectBoundingBox">
	<feGaussianBlur  stdDeviation="2" result="blur" in="SourceAlpha"></feGaussianBlur>
	<feOffset  result="offsetBlur" dx="2" dy="2" in="blur"></feOffset>
	<feFlood  result="offsetColor" flood-color="#000000" flood-opacity="0.5"></feFlood>
	<feComposite  in2="offsetBlur" operator="in" result="offsetBlur" in="offsetColor"></feComposite>
	<feMerge>
		<feMergeNode  in="offsetBlur"></feMergeNode>
		<feMergeNode  in="SourceGraphic"></feMergeNode>
	</feMerge>
</filter>
<g>
	<g filter="url(#Shadow_1)">
		<path fill="#FFFFFF" d="M412.7,196.1h-69.6c-2.4,0-4.3-1.9-4.3-4.3v-90.5c0-2.4,1.9-4.3,4.3-4.3h51.1c0.6,17.3,5,21.3,22.8,22.7
			v72.1C417,194.2,415.1,196.1,412.7,196.1z"/>
	</g>
	<g filter="url(#Shadow_1)">
		<path fill="#FFFFFF" d="M417,119.6h-18.5c-2.4,0-4.3-1.9-4.3-4.3V97"/>
	</g>
	<g filter="url(#Shadow_1)">
		<rect x="332.3" y="156.6" fill="#F2800D" width="62.8" height="23.6"/>
	</g>
	<rect x="335.8" y="162.5" fill="none" width="55.8" height="14.8"/>
	
		<text transform="matrix(1 0 0 1 349.7819 175.0508)" fill="#FFFFFF" font-family="'AvenirNextCondensed-Regular'" font-size="17.7345">DART</text>
</g>
<g>
	<g filter="url(#Shadow_1)">
		<path fill="#FFFFFF" d="M289.7,196.1h-69.6c-2.4,0-4.3-1.9-4.3-4.3v-90.5c0-2.4,1.9-4.3,4.3-4.3h51.1c0.6,17.3,5,21.3,22.8,22.7
			v72.1C294,194.2,292.1,196.1,289.7,196.1z"/>
	</g>
	<g filter="url(#Shadow_1)">
		<path fill="#FFFFFF" d="M294,119.6h-18.5c-2.4,0-4.3-1.9-4.3-4.3V97"/>
	</g>
	<g filter="url(#Shadow_1)">
		<rect x="209.3" y="156.6" fill="#F2800D" width="62.8" height="23.6"/>
	</g>
	<rect x="212.8" y="162.5" fill="none" width="55.8" height="14.8"/>
	
		<text transform="matrix(1 0 0 1 212.7819 175.0508)" fill="#FFFFFF" font-family="'AvenirNextCondensed-Regular'" font-size="17.7345">TYPESCR</text>
</g>
<g>
	<g filter="url(#Shadow_1)">
		<path fill="#FFFFFF" d="M167.7,196.1H98.1c-2.4,0-4.3-1.9-4.3-4.3v-90.5c0-2.4,1.9-4.3,4.3-4.3h51.1c0.6,17.3,5,21.3,22.8,22.7
			v72.1C172,194.2,170.1,196.1,167.7,196.1z"/>
	</g>
	<g filter="url(#Shadow_1)">
		<path fill="#FFFFFF" d="M172,119.6h-18.5c-2.4,0-4.3-1.9-4.3-4.3V97"/>
	</g>
	<g filter="url(#Shadow_1)">
		<rect x="87.3" y="156.6" fill="#F2800D" width="62.8" height="23.6"/>
	</g>
	<rect x="90.8" y="162.5" fill="none" width="55.8" height="14.8"/>
	
		<text transform="matrix(1 0 0 1 95.7819 175.0508)" fill="#FFFFFF" font-family="'AvenirNextCondensed-Regular'" font-size="17.7345">COFFEE</text>
</g>
<g>
	<g filter="url(#Shadow_1)">
		<path fill="#EB615C" d="M880.3,196.1h-69.6c-2.4,0-4.3-1.9-4.3-4.3v-90.5c0-2.4,1.9-4.3,4.3-4.3h51.1c0.6,17.3,5,21.3,22.8,22.7
			v72.1C884.6,194.2,882.7,196.1,880.3,196.1z"/>
	</g>
	<g filter="url(#Shadow_1)">
		<path fill="#EB615C" d="M884.6,119.6h-18.5c-2.4,0-4.3-1.9-4.3-4.3V97"/>
	</g>
	<g filter="url(#Shadow_1)">
		<rect x="799.8" y="156.6" fill="#353535" width="62.8" height="23.6"/>
	</g>
	<rect x="803.3" y="162.5" fill="none" width="55.8" height="14.8"/>
	
		<text transform="matrix(1 0 0 1 823.7341 175.0508)" fill="#FFFFFF" font-family="'AvenirNextCondensed-Regular'" font-size="17.7345">JS</text>
</g>
<polyline fill="none" stroke="#5CBAAE" stroke-width="10" stroke-miterlimit="10" points="542,123.4 568.6,150 542,176.6 "/>
<g id="g3027" transform="matrix(1,0,0,-1,121.49153,1285.4237)">
	<path id="path3029" fill="#F2800D" d="M528.6,1136.5c0,3.4-1.2,6.2-3.5,8.6c-2.4,2.4-5.3,3.5-8.6,3.5s-6.2-1.2-8.6-3.5
		c-2.4-2.4-3.5-5.3-3.5-8.6s1.2-6.2,3.5-8.6c2.4-2.4,5.3-3.5,8.6-3.5s6.2,1.2,8.6,3.5C527.4,1130.3,528.6,1133.1,528.6,1136.5z
		 M553,1141.7v-10.6c0-0.4-0.2-0.8-0.4-1.1c-0.2-0.3-0.5-0.5-0.9-0.6l-8.8-1.3c-0.6-1.7-1.3-3.1-1.9-4.3c1.1-1.6,2.8-3.8,5.1-6.6
		c0.3-0.4,0.5-0.8,0.5-1.2s-0.2-0.8-0.4-1.1c-0.9-1.2-2.4-2.9-4.7-5.1c-2.3-2.3-3.8-3.4-4.5-3.4c-0.4,0-0.8,0.2-1.3,0.4l-6.6,5.1
		c-1.4-0.7-2.8-1.3-4.3-1.8c-0.5-4.3-0.9-7.3-1.4-8.9c-0.2-0.9-0.8-1.3-1.7-1.3H511c-0.5,0-0.9,0.2-1.2,0.4c-0.3,0.2-0.5,0.6-0.5,1
		l-1.3,8.8c-1.6,0.5-3,1.1-4.3,1.7l-6.8-5.1c-0.3-0.3-0.7-0.4-1.2-0.4s-0.9,0.2-1.2,0.5c-4,3.6-6.6,6.3-7.9,8
		c-0.2,0.3-0.3,0.7-0.3,1.1s0.2,0.8,0.4,1.1c0.5,0.6,1.3,1.7,2.4,3.1s2,2.6,2.6,3.4c-0.9,1.6-1.5,3.1-2,4.7l-8.7,1.3
		c-0.4,0.1-0.8,0.2-1,0.6c-0.2,0.3-0.4,0.7-0.4,1.1v10.6c0,0.4,0.2,0.7,0.4,1.1c0.2,0.3,0.5,0.5,0.9,0.6l8.9,1.3
		c0.5,1.5,1.1,2.9,1.9,4.4c-1.3,1.8-3,4-5.1,6.6c-0.3,0.4-0.5,0.8-0.5,1.2c0,0.3,0.2,0.7,0.4,1.1c0.9,1.2,2.4,2.8,4.7,5.1
		c2.3,2.3,3.8,3.4,4.5,3.4c0.4,0,0.9-0.2,1.3-0.5l6.6-5.1c1.4,0.7,2.8,1.3,4.3,1.8c0.5,4.3,0.9,7.3,1.4,8.9c0.2,0.9,0.8,1.3,1.7,1.3
		h10.6c0.5,0,0.9-0.2,1.2-0.4s0.5-0.6,0.5-1l1.3-8.8c1.6-0.5,3-1.1,4.3-1.7l6.8,5.1c0.3,0.3,0.6,0.4,1.2,0.4c0.4,0,0.8-0.2,1.2-0.5
		c4.1-3.8,6.8-6.4,7.9-8.1c0.2-0.2,0.3-0.6,0.3-1s-0.2-0.7-0.4-1.1c-0.5-0.6-1.3-1.7-2.4-3.1s-2-2.6-2.6-3.4c0.9-1.6,1.5-3.1,2-4.6
		l8.7-1.3c0.4-0.1,0.8-0.2,1-0.6C552.8,1142.5,553,1142.1,553,1141.7z"/>
</g>
<line fill="none" stroke="#5CBAAE" stroke-width="10" stroke-miterlimit="10" x1="711" y1="136.6" x2="768" y2="136.6"/>
<line fill="none" stroke="#5CBAAE" stroke-width="10" stroke-miterlimit="10" x1="711" y1="161.5" x2="768" y2="161.5"/>
<g>
	<path fill="none" stroke="#5CBAAE" stroke-width="5" stroke-miterlimit="10" stroke-dasharray="11.9679,11.9679" d="M424.1,235.2
		H82.6c-41.7,0-75.8-33.4-75.8-74.2v-24.7c0-40.9,34.2-74.2,75.8-74.2h341.5c41.7,0,75.8,33.4,75.8,74.2V161
		C500,201.8,465.8,235.2,424.1,235.2z"/>
</g>
</svg>
