<?xml version="1.0" encoding="utf-8"?>
<!-- Generator: Adobe Illustrator 18.1.0, SVG Export Plug-In . SVG Version: 6.00 Build 0)  -->
<svg version="1.1"
	 xmlns="http://www.w3.org/2000/svg" xmlns:xlink="http://www.w3.org/1999/xlink" x="0px" y="0px" viewBox="0 0 1240 700" xml:space="preserve">

<filter  id="Shadow_1" filterUnits="objectBoundingBox">
	<feGaussianBlur  stdDeviation="2" result="blur" in="SourceAlpha"></feGaussianBlur>
	<feOffset  result="offsetBlur" dx="2" dy="2" in="blur"></feOffset>
	<feFlood  result="offsetColor" flood-color="#000000" flood-opacity="0.5"></feFlood>
	<feComposite  in2="offsetBlur" operator="in" result="offsetBlur" in="offsetColor"></feComposite>
	<feMerge>
		<feMergeNode  in="offsetBlur"></feMergeNode>
		<feMergeNode  in="SourceGraphic"></feMergeNode>
	</feMerge>
</filter>
<g>
	<g filter="url(#Shadow_1)">
		<path fill="#FFFFFF" d="M232,541.6h-48.1c-1.7,0-3-1.3-3-3v-62.5c0-1.7,1.3-3,3-3h35.3c0.4,11.9,3.5,14.7,15.7,15.7v49.8
			C234.9,540.2,233.6,541.6,232,541.6z"/>
	</g>
	<g filter="url(#Shadow_1)">
		<path fill="#FFFFFF" d="M234.9,488.7h-12.8c-1.7,0-3-1.3-3-3v-12.6"/>
	</g>
	<g filter="url(#Shadow_1)">
		<rect x="176.5" y="514.3" fill="#F2800D" width="43.4" height="16.3"/>
	</g>
	<rect x="178.9" y="518.4" fill="none" width="38.5" height="10.2"/>
	
		<text transform="matrix(1 0 0 1 178.8633 527.0225)" fill="#FFFFFF" font-family="'AvenirNextCondensed-Regular'" font-size="12.2439">TYPESCR</text>
</g>
<g>
	<g filter="url(#Shadow_1)">
		<path fill="#FFFFFF" d="M204.9,632.1h-43.1c-1.5,0-2.7-1.2-2.7-2.7v-56.1c0-1.5,1.2-2.7,2.7-2.7h31.7c0.4,10.7,3.1,13.2,14.1,14.1
			v44.7C207.6,630.9,206.4,632.1,204.9,632.1z"/>
	</g>
	<g filter="url(#Shadow_1)">
		<path fill="#FFFFFF" d="M207.6,584.7h-11.5c-1.5,0-2.7-1.2-2.7-2.7v-11.3"/>
	</g>
	<g filter="url(#Shadow_1)">
		<rect x="155.1" y="607.6" fill="#F2800D" width="38.9" height="14.6"/>
	</g>
	<rect x="157.3" y="611.3" fill="none" width="34.6" height="9.2"/>
	
		<text transform="matrix(1 0 0 1 160.3472 619.0273)" fill="#FFFFFF" font-family="'AvenirNextCondensed-Regular'" font-size="10.9884">COFFEE</text>
</g>
<g>
	<g filter="url(#Shadow_1)">
		<path fill="#EB615C" d="M1181.5,590.3h-64.3c-2.2,0-4-1.8-4-4v-83.6c0-2.2,1.8-4,4-4h47.2c0.6,16,4.6,19.7,21.1,21v66.6
			C1185.4,588.6,1183.7,590.3,1181.5,590.3z"/>
	</g>
	<g filter="url(#Shadow_1)">
		<path fill="#EB615C" d="M1185.4,519.7h-17.1c-2.2,0-4-1.8-4-4v-16.9"/>
	</g>
	<g filter="url(#Shadow_1)">
		<rect x="1107.1" y="553.9" fill="#353535" width="58" height="21.8"/>
	</g>
	<rect x="1110.4" y="559.3" fill="none" width="51.5" height="13.7"/>
	
		<text transform="matrix(1 0 0 1 1129.2432 570.9083)" fill="#FFFFFF" font-family="'AvenirNextCondensed-Regular'" font-size="16.3747">JS</text>
</g>
<line fill="none" stroke="#5CBAAE" stroke-width="10" stroke-miterlimit="10" x1="1028.8" y1="538.2" x2="1081.5" y2="538.2"/>
<line fill="none" stroke="#5CBAAE" stroke-width="10" stroke-miterlimit="10" x1="1028.8" y1="561.2" x2="1081.5" y2="561.2"/>
<g>
	<g filter="url(#Shadow_1)">
		<path fill="#FFFFFF" d="M819.4,542.6h-44.8c-1.5,0-2.8-1.2-2.8-2.8v-58.3c0-1.5,1.2-2.8,2.8-2.8h32.9c0.4,11.1,3.2,13.7,14.7,14.6
			v46.4C822.2,541.3,821,542.6,819.4,542.6z"/>
	</g>
	<g filter="url(#Shadow_1)">
		<path fill="#FFFFFF" d="M822.2,493.3h-11.9c-1.5,0-2.8-1.2-2.8-2.8v-11.8"/>
	</g>
	<g filter="url(#Shadow_1)">
		<rect x="767.7" y="517.1" fill="#F2800D" width="40.4" height="15.2"/>
	</g>
	<rect x="769.9" y="520.9" fill="none" width="35.9" height="9.5"/>
	<text transform="matrix(1 0 0 1 783.4229 529)" fill="#FFFFFF" font-family="'AvenirNextCondensed-Regular'" font-size="11.4213">JS</text>
</g>
<g>
	<g filter="url(#Shadow_1)">
		<path fill="#FFFFFF" d="M876.3,592.2h-44.8c-1.5,0-2.8-1.2-2.8-2.8v-58.3c0-1.5,1.2-2.8,2.8-2.8h32.9c0.4,11.1,3.2,13.7,14.7,14.6
			v46.4C879.1,591,877.9,592.2,876.3,592.2z"/>
	</g>
	<g filter="url(#Shadow_1)">
		<path fill="#FFFFFF" d="M879.1,542.9h-11.9c-1.5,0-2.8-1.2-2.8-2.8v-11.8"/>
	</g>
	<g filter="url(#Shadow_1)">
		<rect x="824.6" y="566.7" fill="#F2800D" width="40.4" height="15.2"/>
	</g>
	<rect x="826.8" y="570.5" fill="none" width="35.9" height="9.5"/>
	
		<text transform="matrix(1 0 0 1 840.3193 578.626)" fill="#FFFFFF" font-family="'AvenirNextCondensed-Regular'" font-size="11.4213">JS</text>
</g>
<g>
	<g filter="url(#Shadow_1)">
		<path fill="#FFFFFF" d="M812.8,616.4h-29.7c-1,0-1.8-0.8-1.8-1.8V576c0-1,0.8-1.8,1.8-1.8h21.8c0.3,7.4,2.1,9.1,9.7,9.7v30.7
			C814.7,615.6,813.8,616.4,812.8,616.4z"/>
	</g>
	<g filter="url(#Shadow_1)">
		<path fill="#FFFFFF" d="M814.7,583.8h-7.9c-1,0-1.8-0.8-1.8-1.8v-7.8"/>
	</g>
	<g filter="url(#Shadow_1)">
		<rect x="778.6" y="599.5" fill="#F2800D" width="26.8" height="10.1"/>
	</g>
	<rect x="780.1" y="602.1" fill="none" width="23.8" height="6.3"/>
	
		<text transform="matrix(1 0 0 1 789.002 607.4062)" fill="#FFFFFF" font-family="'AvenirNextCondensed-Regular'" font-size="7.5565">JS</text>
</g>
<polyline fill="none" stroke="#5CBAAE" stroke-width="10" stroke-miterlimit="10" points="721.2,524.7 745.8,549.3 721.2,573.8 "/>
<polyline fill="none" stroke="#5CBAAE" stroke-width="10" stroke-miterlimit="10" points="595.8,524.7 620.4,549.3 595.8,573.8 "/>
<polyline fill="none" stroke="#5CBAAE" stroke-width="10" stroke-miterlimit="10" points="290.3,524.7 314.8,549.3 290.3,573.8 "/>
<polyline fill="none" stroke="#5CBAAE" stroke-width="10" stroke-miterlimit="10" points="124.1,524.7 148.7,549.3 124.1,573.8 "/>
<g>
	<g filter="url(#Shadow_1)">
		<path fill="#FFFFFF" d="M508,567.5h-47.5c-1.6,0-2.9-1.3-2.9-2.9v-61.8c0-1.6,1.3-2.9,2.9-2.9h34.9c0.4,11.8,3.4,14.5,15.6,15.5
			v49.2C511,566.2,509.7,567.5,508,567.5z"/>
	</g>
	<g filter="url(#Shadow_1)">
		<path fill="#FFFFFF" d="M511,515.2h-12.6c-1.6,0-2.9-1.3-2.9-2.9v-12.5"/>
	</g>
	<g filter="url(#Shadow_1)">
		<rect x="453.1" y="540.5" fill="#F2800D" width="42.9" height="16.1"/>
	</g>
	<rect x="455.5" y="544.5" fill="none" width="38.1" height="10.1"/>
	
		<text transform="matrix(1 0 0 1 469.8496 553.0967)" fill="#FFFFFF" font-family="'AvenirNextCondensed-Regular'" font-size="12.1117">JS</text>
</g>
<g>
	<g filter="url(#Shadow_1)">
		<path fill="#FFFFFF" d="M275,627h-47.5c-1.6,0-2.9-1.3-2.9-2.9v-61.8c0-1.6,1.3-2.9,2.9-2.9h34.9c0.4,11.8,3.4,14.5,15.6,15.5
			v49.2C278,625.7,276.7,627,275,627z"/>
	</g>
	<g filter="url(#Shadow_1)">
		<path fill="#FFFFFF" d="M278,574.8h-12.6c-1.6,0-2.9-1.3-2.9-2.9v-12.5"/>
	</g>
	<g filter="url(#Shadow_1)">
		<rect x="220.1" y="600.1" fill="#F2800D" width="42.9" height="16.1"/>
	</g>
	<rect x="222.5" y="604.1" fill="none" width="38.1" height="10.1"/>
	
		<text transform="matrix(1 0 0 1 236.8589 612.6709)" fill="#FFFFFF" font-family="'AvenirNextCondensed-Regular'" font-size="12.1117">JS</text>
</g>
<g>
	<g filter="url(#Shadow_1)">
		<path fill="#FFFFFF" d="M561.3,626.4h-39.8c-1.4,0-2.5-1.1-2.5-2.5v-51.8c0-1.4,1.1-2.5,2.5-2.5h29.3c0.3,9.9,2.9,12.2,13.1,13
			v41.3C563.8,625.3,562.7,626.4,561.3,626.4z"/>
	</g>
	<g filter="url(#Shadow_1)">
		<path fill="#FFFFFF" d="M563.8,582.6h-10.6c-1.4,0-2.5-1.1-2.5-2.5v-10.5"/>
	</g>
	<g filter="url(#Shadow_1)">
		<rect x="515.3" y="603.8" fill="#F2800D" width="36" height="13.5"/>
	</g>
	<rect x="517.3" y="607.2" fill="none" width="31.9" height="8.5"/>
	
		<text transform="matrix(1 0 0 1 529.3228 614.3496)" fill="#FFFFFF" font-family="'AvenirNextCondensed-Regular'" font-size="10.1531">JS</text>
</g>
<g>
	<g filter="url(#Shadow_1)">
		<path fill="#FFFFFF" d="M572.5,546.8H528c-1.5,0-2.7-1.2-2.7-2.7v-57.8c0-1.5,1.2-2.7,2.7-2.7h32.6c0.4,11,3.2,13.6,14.6,14.5v46
			C575.2,545.6,574,546.8,572.5,546.8z"/>
	</g>
	<g filter="url(#Shadow_1)">
		<path fill="#FFFFFF" d="M575.2,498h-11.8c-1.5,0-2.7-1.2-2.7-2.7v-11.7"/>
	</g>
	<g filter="url(#Shadow_1)">
		<rect x="521.2" y="521.6" fill="#F2800D" width="40.1" height="15.1"/>
	</g>
	<rect x="523.4" y="525.3" fill="none" width="35.6" height="9.4"/>
	
		<text transform="matrix(1 0 0 1 536.7827 533.3594)" fill="#FFFFFF" font-family="'AvenirNextCondensed-Regular'" font-size="11.3214">JS</text>
</g>
<text transform="matrix(1 0 0 1 788.0508 502.873)" fill="#333333" font-family="'AvenirNextCondensed-Regular'" font-size="17.7172">1</text>
<text transform="matrix(1 0 0 1 844.7754 558.546)" fill="#333333" font-family="'AvenirNextCondensed-Regular'" font-size="17.7172">2</text>
<text transform="matrix(1 0 0 1 791.9492 592.1113)" fill="#333333" font-family="'AvenirNextCondensed-Regular'" font-size="11.722">3</text>
<g id="g3027_1_" transform="matrix(1,0,0,-1,121.49153,1285.4237)">
	<path id="path3029_1_" fill="#F2800D" d="M559.8,737.2c0,2.5-0.9,4.6-2.6,6.3c-1.8,1.8-3.9,2.6-6.3,2.6s-4.6-0.9-6.3-2.6
		c-1.8-1.8-2.6-3.9-2.6-6.3s0.9-4.6,2.6-6.3c1.8-1.8,3.9-2.6,6.3-2.6s4.6,0.9,6.3,2.6C558.9,732.6,559.8,734.7,559.8,737.2z
		 M577.7,741v-7.8c0-0.3-0.1-0.6-0.3-0.8c-0.1-0.2-0.4-0.4-0.7-0.4l-6.5-1c-0.4-1.2-1-2.3-1.4-3.2c0.8-1.2,2.1-2.8,3.7-4.8
		c0.2-0.3,0.4-0.6,0.4-0.9c0-0.3-0.1-0.6-0.3-0.8c-0.7-0.9-1.8-2.1-3.5-3.7c-1.7-1.7-2.8-2.5-3.3-2.5c-0.3,0-0.6,0.1-1,0.3l-4.8,3.7
		c-1-0.5-2.1-1-3.2-1.3c-0.4-3.2-0.7-5.4-1-6.5c-0.1-0.7-0.6-1-1.2-1h-7.9c-0.4,0-0.7,0.1-0.9,0.3c-0.2,0.1-0.4,0.4-0.4,0.7l-1,6.5
		c-1.2,0.4-2.2,0.8-3.2,1.2l-5-3.7c-0.2-0.2-0.5-0.3-0.9-0.3s-0.7,0.1-0.9,0.4c-2.9,2.6-4.8,4.6-5.8,5.9c-0.1,0.2-0.2,0.5-0.2,0.8
		s0.1,0.6,0.3,0.8c0.4,0.4,1,1.2,1.8,2.3c0.8,1,1.5,1.9,1.9,2.5c-0.7,1.2-1.1,2.3-1.5,3.5l-6.4,1c-0.3,0.1-0.6,0.1-0.7,0.4
		c-0.1,0.2-0.3,0.5-0.3,0.8v7.8c0,0.3,0.1,0.5,0.3,0.8c0.1,0.2,0.4,0.4,0.7,0.4l6.5,1c0.4,1.1,0.8,2.1,1.4,3.2
		c-1,1.3-2.2,2.9-3.7,4.8c-0.2,0.3-0.4,0.6-0.4,0.9c0,0.2,0.1,0.5,0.3,0.8c0.7,0.9,1.8,2.1,3.5,3.7c1.7,1.7,2.8,2.5,3.3,2.5
		c0.3,0,0.7-0.1,1-0.4l4.8-3.7c1,0.5,2.1,1,3.2,1.3c0.4,3.2,0.7,5.4,1,6.5c0.1,0.7,0.6,1,1.2,1h7.8c0.4,0,0.7-0.1,0.9-0.3
		c0.2-0.1,0.4-0.4,0.4-0.7l1-6.5c1.2-0.4,2.2-0.8,3.2-1.2l5,3.7c0.2,0.2,0.4,0.3,0.9,0.3c0.3,0,0.6-0.1,0.9-0.4c3-2.8,5-4.7,5.8-5.9
		c0.1-0.1,0.2-0.4,0.2-0.7s-0.1-0.5-0.3-0.8c-0.4-0.4-1-1.2-1.8-2.3c-0.8-1-1.5-1.9-1.9-2.5c0.7-1.2,1.1-2.3,1.5-3.4l6.4-1
		c0.3-0.1,0.6-0.1,0.7-0.4C577.6,741.6,577.7,741.3,577.7,741z"/>
</g>
<polyline fill="none" stroke="#5CBAAE" stroke-width="10" stroke-miterlimit="10" points="407.1,524.7 431.7,549.3 407.1,573.8 "/>
<g id="g3027_2_" transform="matrix(1,0,0,-1,121.49153,1285.4237)">
	<path id="path3029_2_" fill="#F2800D" d="M249.1,737.2c0,2.5-0.9,4.6-2.6,6.3c-1.8,1.8-3.9,2.6-6.3,2.6s-4.6-0.9-6.3-2.6
		c-1.8-1.8-2.6-3.9-2.6-6.3s0.9-4.6,2.6-6.3c1.8-1.8,3.9-2.6,6.3-2.6s4.6,0.9,6.3,2.6C248.2,732.6,249.1,734.7,249.1,737.2z
		 M267,741v-7.8c0-0.3-0.1-0.6-0.3-0.8c-0.1-0.2-0.4-0.4-0.7-0.4l-6.5-1c-0.4-1.2-1-2.3-1.4-3.2c0.8-1.2,2.1-2.8,3.7-4.8
		c0.2-0.3,0.4-0.6,0.4-0.9c0-0.3-0.1-0.6-0.3-0.8c-0.7-0.9-1.8-2.1-3.5-3.7c-1.7-1.7-2.8-2.5-3.3-2.5c-0.3,0-0.6,0.1-1,0.3l-4.8,3.7
		c-1-0.5-2.1-1-3.2-1.3c-0.4-3.2-0.7-5.4-1-6.5c-0.1-0.7-0.6-1-1.2-1h-7.9c-0.4,0-0.7,0.1-0.9,0.3c-0.2,0.1-0.4,0.4-0.4,0.7l-1,6.5
		c-1.2,0.4-2.2,0.8-3.2,1.2l-5-3.7c-0.2-0.2-0.5-0.3-0.9-0.3s-0.7,0.1-0.9,0.4c-2.9,2.6-4.8,4.6-5.8,5.9c-0.1,0.2-0.2,0.5-0.2,0.8
		s0.1,0.6,0.3,0.8c0.4,0.4,1,1.2,1.8,2.3c0.8,1,1.5,1.9,1.9,2.5c-0.7,1.2-1.1,2.3-1.5,3.5l-6.4,1c-0.3,0.1-0.6,0.1-0.7,0.4
		c-0.1,0.2-0.3,0.5-0.3,0.8v7.8c0,0.3,0.1,0.5,0.3,0.8c0.1,0.2,0.4,0.4,0.7,0.4l6.5,1c0.4,1.1,0.8,2.1,1.4,3.2
		c-1,1.3-2.2,2.9-3.7,4.8c-0.2,0.3-0.4,0.6-0.4,0.9c0,0.2,0.1,0.5,0.3,0.8c0.7,0.9,1.8,2.1,3.5,3.7c1.7,1.7,2.8,2.5,3.3,2.5
		c0.3,0,0.7-0.1,1-0.4l4.8-3.7c1,0.5,2.1,1,3.2,1.3c0.4,3.2,0.7,5.4,1,6.5c0.1,0.7,0.6,1,1.2,1h7.8c0.4,0,0.7-0.1,0.9-0.3
		c0.2-0.1,0.4-0.4,0.4-0.7l1-6.5c1.2-0.4,2.2-0.8,3.2-1.2l5,3.7c0.2,0.2,0.4,0.3,0.9,0.3c0.3,0,0.6-0.1,0.9-0.4c3-2.8,5-4.7,5.8-5.9
		c0.1-0.1,0.2-0.4,0.2-0.7s-0.1-0.5-0.3-0.8c-0.4-0.4-1-1.2-1.8-2.3c-0.8-1-1.5-1.9-1.9-2.5c0.7-1.2,1.1-2.3,1.5-3.4l6.4-1
		c0.3-0.1,0.6-0.1,0.7-0.4C266.8,741.6,267,741.3,267,741z"/>
</g>
<polygon fill="#F2800D" points="97.8,543.6 76.9,564.6 55.8,543.6 67.1,543.6 67.1,523.9 86.8,523.9 86.8,543.6 "/>
<rect x="52.1" y="564.6" fill="#F2800D" width="48.3" height="9.4"/>
<g>
	
		<text transform="matrix(1 0 0 1 347.5244 504.9707)" fill="#333333" font-family="'AvenirNextCondensed-Regular'" font-size="22.1598">PRE</text>
</g>
<g>
	
		<text transform="matrix(1 0 0 1 640.2188 504.9707)" fill="#333333" font-family="'AvenirNextCondensed-Regular'" font-size="22.1598">REQUIRE</text>
</g>
<polyline fill="none" stroke="#5CBAAE" stroke-width="10" stroke-miterlimit="10" points="903.3,524.7 927.9,549.3 903.3,573.8 "/>
<g id="g3027_3_" transform="matrix(1,0,0,-1,121.49153,1285.4237)">
	<path id="path3029_3_" fill="#F2800D" d="M863.6,737.2c0,2.5-0.9,4.6-2.6,6.3c-1.8,1.8-3.9,2.6-6.3,2.6s-4.6-0.9-6.3-2.6
		c-1.8-1.8-2.6-3.9-2.6-6.3s0.9-4.6,2.6-6.3c1.8-1.8,3.9-2.6,6.3-2.6s4.6,0.9,6.3,2.6C862.7,732.6,863.6,734.7,863.6,737.2z
		 M881.5,741v-7.8c0-0.3-0.1-0.6-0.3-0.8c-0.1-0.2-0.4-0.4-0.7-0.4l-6.5-1c-0.4-1.2-1-2.3-1.4-3.2c0.8-1.2,2.1-2.8,3.7-4.8
		c0.2-0.3,0.4-0.6,0.4-0.9c0-0.3-0.1-0.6-0.3-0.8c-0.7-0.9-1.8-2.1-3.5-3.7c-1.7-1.7-2.8-2.5-3.3-2.5c-0.3,0-0.6,0.1-1,0.3l-4.8,3.7
		c-1-0.5-2.1-1-3.2-1.3c-0.4-3.2-0.7-5.4-1-6.5c-0.1-0.7-0.6-1-1.2-1h-7.9c-0.4,0-0.7,0.1-0.9,0.3c-0.2,0.1-0.4,0.4-0.4,0.7l-1,6.5
		c-1.2,0.4-2.2,0.8-3.2,1.2l-5-3.7c-0.2-0.2-0.5-0.3-0.9-0.3c-0.4,0-0.7,0.1-0.9,0.4c-2.9,2.6-4.8,4.6-5.8,5.9
		c-0.1,0.2-0.2,0.5-0.2,0.8s0.1,0.6,0.3,0.8c0.4,0.4,1,1.2,1.8,2.3c0.8,1,1.5,1.9,1.9,2.5c-0.7,1.2-1.1,2.3-1.5,3.5l-6.4,1
		c-0.3,0.1-0.6,0.1-0.7,0.4c-0.1,0.2-0.3,0.5-0.3,0.8v7.8c0,0.3,0.1,0.5,0.3,0.8c0.1,0.2,0.4,0.4,0.7,0.4l6.5,1
		c0.4,1.1,0.8,2.1,1.4,3.2c-1,1.3-2.2,2.9-3.7,4.8c-0.2,0.3-0.4,0.6-0.4,0.9c0,0.2,0.1,0.5,0.3,0.8c0.7,0.9,1.8,2.1,3.5,3.7
		c1.7,1.7,2.8,2.5,3.3,2.5c0.3,0,0.7-0.1,1-0.4l4.8-3.7c1,0.5,2.1,1,3.2,1.3c0.4,3.2,0.7,5.4,1,6.5c0.1,0.7,0.6,1,1.2,1h7.8
		c0.4,0,0.7-0.1,0.9-0.3c0.2-0.1,0.4-0.4,0.4-0.7l1-6.5c1.2-0.4,2.2-0.8,3.2-1.2l5,3.7c0.2,0.2,0.4,0.3,0.9,0.3
		c0.3,0,0.6-0.1,0.9-0.4c3-2.8,5-4.7,5.8-5.9c0.1-0.1,0.2-0.4,0.2-0.7s-0.1-0.5-0.3-0.8c-0.4-0.4-1-1.2-1.8-2.3
		c-0.8-1-1.5-1.9-1.9-2.5c0.7-1.2,1.1-2.3,1.5-3.4l6.4-1c0.3-0.1,0.6-0.1,0.7-0.4C881.3,741.6,881.5,741.3,881.5,741z"/>
</g>
<g>
	
		<text transform="matrix(1 0 0 1 956.9189 504.9707)" fill="#333333" font-family="'AvenirNextCondensed-Regular'" font-size="22.1598">POST</text>
</g>
<g>
	<g filter="url(#Shadow_1)">
		<path fill="#FFFFFF" d="M476.9,410.7h-46.6c-1.6,0-2.9-1.3-2.9-2.9v-60.6c0-1.6,1.3-2.9,2.9-2.9h34.2c0.4,11.5,3.3,14.2,15.2,15.2
			v48.3C479.8,409.4,478.5,410.7,476.9,410.7z"/>
	</g>
	<g filter="url(#Shadow_1)">
		<path fill="#FFFFFF" d="M479.8,359.4h-12.4c-1.6,0-2.9-1.3-2.9-2.9v-12.3"/>
	</g>
	<g filter="url(#Shadow_1)">
		<rect x="423.1" y="384.2" fill="#B781D3" width="42" height="15.8"/>
	</g>
	<rect x="425.4" y="388.1" fill="none" width="37.3" height="9.9"/>
	
		<text transform="matrix(1 0 0 1 433.7964 396.5527)" fill="#FFFFFF" font-family="'AvenirNextCondensed-Regular'" font-size="11.8696">LESS</text>
</g>
<g>
	<g filter="url(#Shadow_1)">
		<path fill="#FFFFFF" d="M549.7,433.2h-46.6c-1.6,0-2.9-1.3-2.9-2.9v-60.6c0-1.6,1.3-2.9,2.9-2.9h34.2c0.4,11.5,3.3,14.2,15.2,15.2
			v48.3C552.6,431.9,551.3,433.2,549.7,433.2z"/>
	</g>
	<g filter="url(#Shadow_1)">
		<path fill="#FFFFFF" d="M552.6,381.9h-12.4c-1.6,0-2.9-1.3-2.9-2.9v-12.3"/>
	</g>
	<g filter="url(#Shadow_1)">
		<rect x="495.9" y="406.7" fill="#B781D3" width="42" height="15.8"/>
	</g>
	<rect x="498.2" y="410.7" fill="none" width="37.3" height="9.9"/>
	
		<text transform="matrix(1 0 0 1 497.4268 419.0752)" fill="#FFFFFF" font-family="'AvenirNextCondensed-Regular'" font-size="11.8696">STYLUS</text>
</g>
<g>
	<g filter="url(#Shadow_1)">
		<path fill="#FFFFFF" d="M513.5,329.2h-46.6c-1.6,0-2.9-1.3-2.9-2.9v-60.6c0-1.6,1.3-2.9,2.9-2.9H501c0.4,11.5,3.3,14.2,15.2,15.2
			v48.3C516.4,328,515.1,329.2,513.5,329.2z"/>
	</g>
	<g filter="url(#Shadow_1)">
		<path fill="#FFFFFF" d="M516.4,278.1H504c-1.6,0-2.9-1.3-2.9-2.9v-12.3"/>
	</g>
	<g filter="url(#Shadow_1)">
		<rect x="459.7" y="302.8" fill="#B781D3" width="42" height="15.8"/>
	</g>
	<rect x="462" y="306.8" fill="none" width="37.3" height="9.9"/>
	
		<text transform="matrix(1 0 0 1 469.3365 315.1617)" fill="#FFFFFF" font-family="'AvenirNextCondensed-Regular'" font-size="11.8696">SASS</text>
</g>
<g>
	<g filter="url(#Shadow_1)">
		<path fill="#FFFFFF" d="M851.1,392.3h-64.3c-2.2,0-4-1.8-4-4v-83.6c0-2.2,1.8-4,4-4H834c0.6,16,4.6,19.7,21.1,21v66.6
			C855,390.5,853.3,392.3,851.1,392.3z"/>
	</g>
	<g filter="url(#Shadow_1)">
		<path fill="#FFFFFF" d="M855,321.6H838c-2.2,0-4-1.8-4-4v-16.9"/>
	</g>
	<g filter="url(#Shadow_1)">
		<rect x="776.8" y="355.8" fill="#B781D3" width="58" height="21.8"/>
	</g>
	<rect x="780.1" y="361.3" fill="none" width="51.5" height="13.7"/>
	
		<text transform="matrix(1 0 0 1 792.9708 372.8467)" fill="#FFFFFF" font-family="'AvenirNextCondensed-Regular'" font-size="16.3747">CSS</text>
</g>
<g>
	<g filter="url(#Shadow_1)">
		<path fill="#EB615C" d="M1181.2,392.3H1117c-2.2,0-4-1.8-4-4v-83.6c0-2.2,1.8-4,4-4h47.2c0.6,16,4.6,19.7,21.1,21v66.6
			C1185.2,390.5,1183.5,392.3,1181.2,392.3z"/>
	</g>
	<g filter="url(#Shadow_1)">
		<path fill="#EB615C" d="M1185.2,321.6h-17.1c-2.2,0-4-1.8-4-4v-16.9"/>
	</g>
	<g filter="url(#Shadow_1)">
		<rect x="1106.9" y="355.8" fill="#353535" width="58" height="21.8"/>
	</g>
	<rect x="1110.2" y="361.3" fill="none" width="51.5" height="13.7"/>
	
		<text transform="matrix(1 0 0 1 1123.4775 372.8467)" fill="#FFFFFF" font-family="'AvenirNextCondensed-Regular'" font-size="16.3747">CSS</text>
</g>
<polyline fill="none" stroke="#5CBAAE" stroke-width="10" stroke-miterlimit="10" points="580,325.2 604.5,349.7 580,374.3 "/>
<polyline fill="none" stroke="#5CBAAE" stroke-width="10" stroke-miterlimit="10" points="889.2,325.2 913.8,349.7 889.2,374.3 "/>
<polyline fill="none" stroke="#5CBAAE" stroke-width="10" stroke-miterlimit="10" points="720,325.2 744.5,349.7 720,374.3 "/>
<g id="g3027" transform="matrix(1,0,0,-1,121.49153,1285.4237)">
	<path id="path3029" fill="#B781D3" d="M857,936.7c0,2.7-0.9,4.8-2.7,6.7c-1.9,1.9-4.1,2.7-6.7,2.7s-4.8-0.9-6.7-2.7
		c-1.9-1.9-2.7-4.1-2.7-6.7s0.9-4.8,2.7-6.7c1.9-1.9,4.1-2.7,6.7-2.7s4.8,0.9,6.7,2.7C856.1,931.8,857,934,857,936.7z M876.1,940.8
		v-8.3c0-0.3-0.2-0.6-0.3-0.9c-0.2-0.2-0.4-0.4-0.7-0.5l-6.9-1c-0.5-1.3-1-2.4-1.5-3.4c0.9-1.3,2.2-3,4-5.2c0.2-0.3,0.4-0.6,0.4-0.9
		c0-0.3-0.2-0.6-0.3-0.9c-0.7-0.9-1.9-2.3-3.7-4c-1.8-1.8-3-2.7-3.5-2.7c-0.3,0-0.6,0.2-1,0.3l-5.2,4c-1.1-0.5-2.2-1-3.4-1.4
		c-0.4-3.4-0.7-5.7-1.1-7c-0.2-0.7-0.6-1-1.3-1h-8.4c-0.4,0-0.7,0.2-0.9,0.3c-0.2,0.2-0.4,0.5-0.4,0.8l-1,6.9
		c-1.3,0.4-2.3,0.9-3.4,1.3l-5.3-4c-0.2-0.2-0.5-0.3-0.9-0.3s-0.7,0.2-0.9,0.4c-3.1,2.8-5.2,4.9-6.2,6.3c-0.2,0.2-0.2,0.5-0.2,0.9
		c0,0.3,0.2,0.6,0.3,0.9c0.4,0.5,1,1.3,1.9,2.4c0.9,1.1,1.6,2,2,2.7c-0.7,1.3-1.2,2.4-1.6,3.7l-6.8,1c-0.3,0.1-0.6,0.2-0.8,0.5
		c-0.2,0.2-0.3,0.5-0.3,0.9v8.3c0,0.3,0.2,0.5,0.3,0.9c0.2,0.2,0.4,0.4,0.7,0.5l7,1c0.4,1.2,0.9,2.3,1.5,3.4c-1,1.4-2.3,3.1-4,5.2
		c-0.2,0.3-0.4,0.6-0.4,0.9c0,0.2,0.2,0.5,0.3,0.9c0.7,0.9,1.9,2.2,3.7,4c1.8,1.8,3,2.7,3.5,2.7c0.3,0,0.7-0.2,1-0.4l5.2-4
		c1.1,0.5,2.2,1,3.4,1.4c0.4,3.4,0.7,5.7,1.1,7c0.2,0.7,0.6,1,1.3,1h8.3c0.4,0,0.7-0.2,0.9-0.3c0.2-0.2,0.4-0.5,0.4-0.8l1-6.9
		c1.3-0.4,2.3-0.9,3.4-1.3l5.3,4c0.2,0.2,0.5,0.3,0.9,0.3c0.3,0,0.6-0.2,0.9-0.4c3.2-3,5.3-5,6.2-6.3c0.2-0.2,0.2-0.5,0.2-0.8
		s-0.2-0.5-0.3-0.9c-0.4-0.5-1-1.3-1.9-2.4c-0.9-1.1-1.6-2-2-2.7c0.7-1.3,1.2-2.4,1.6-3.6l6.8-1c0.3-0.1,0.6-0.2,0.8-0.5
		C875.9,941.4,876.1,941.1,876.1,940.8z"/>
</g>
<g id="g3027_4_" transform="matrix(1,0,0,-1,121.49153,1285.4237)">
	<path id="path3029_4_" fill="#B781D3" d="M552.5,936.7c0,2.7-0.9,4.8-2.7,6.7c-1.9,1.9-4.1,2.7-6.7,2.7s-4.8-0.9-6.7-2.7
		c-1.9-1.9-2.7-4.1-2.7-6.7s0.9-4.8,2.7-6.7c1.9-1.9,4.1-2.7,6.7-2.7s4.8,0.9,6.7,2.7C551.5,931.8,552.5,934,552.5,936.7z
		 M571.6,940.8v-8.3c0-0.3-0.2-0.6-0.3-0.9c-0.2-0.2-0.4-0.4-0.7-0.5l-6.9-1c-0.5-1.3-1-2.4-1.5-3.4c0.9-1.3,2.2-3,4-5.2
		c0.2-0.3,0.4-0.6,0.4-0.9c0-0.3-0.2-0.6-0.3-0.9c-0.7-0.9-1.9-2.3-3.7-4c-1.8-1.8-3-2.7-3.5-2.7c-0.3,0-0.6,0.2-1,0.3l-5.2,4
		c-1.1-0.5-2.2-1-3.4-1.4c-0.4-3.4-0.7-5.7-1.1-7c-0.2-0.7-0.6-1-1.3-1h-8.3c-0.4,0-0.7,0.2-0.9,0.3c-0.2,0.2-0.4,0.5-0.4,0.8
		l-1,6.9c-1.3,0.4-2.3,0.9-3.4,1.3l-5.3-4c-0.2-0.2-0.5-0.3-0.9-0.3s-0.7,0.2-0.9,0.4c-3.1,2.8-5.2,4.9-6.2,6.3
		c-0.2,0.2-0.2,0.5-0.2,0.9c0,0.3,0.2,0.6,0.3,0.9c0.4,0.5,1,1.3,1.9,2.4c0.9,1.1,1.6,2,2,2.7c-0.7,1.3-1.2,2.4-1.6,3.7l-6.8,1
		c-0.3,0.1-0.6,0.2-0.8,0.5c-0.2,0.2-0.3,0.5-0.3,0.9v8.3c0,0.3,0.2,0.5,0.3,0.9c0.2,0.2,0.4,0.4,0.7,0.5l7,1
		c0.4,1.2,0.9,2.3,1.5,3.4c-1,1.4-2.3,3.1-4,5.2c-0.2,0.3-0.4,0.6-0.4,0.9c0,0.2,0.2,0.5,0.3,0.9c0.7,0.9,1.9,2.2,3.7,4
		c1.8,1.8,3,2.7,3.5,2.7c0.3,0,0.7-0.2,1-0.4l5.2-4c1.1,0.5,2.2,1,3.4,1.4c0.4,3.4,0.7,5.7,1.1,7c0.2,0.7,0.6,1,1.3,1h8.3
		c0.4,0,0.7-0.2,0.9-0.3s0.4-0.5,0.4-0.8l1-6.9c1.3-0.4,2.3-0.9,3.4-1.3l5.3,4c0.2,0.2,0.5,0.3,0.9,0.3c0.3,0,0.6-0.2,0.9-0.4
		c3.2-3,5.3-5,6.2-6.3c0.2-0.2,0.2-0.5,0.2-0.8s-0.2-0.5-0.3-0.9c-0.4-0.5-1-1.3-1.9-2.4c-0.9-1.1-1.6-2-2-2.7
		c0.7-1.3,1.2-2.4,1.6-3.6l6.8-1c0.3-0.1,0.6-0.2,0.8-0.5C571.5,941.4,571.6,941.1,571.6,940.8z"/>
</g>
<line fill="none" stroke="#5CBAAE" stroke-width="10" stroke-miterlimit="10" x1="1024.9" y1="337.3" x2="1077.6" y2="337.3"/>
<line fill="none" stroke="#5CBAAE" stroke-width="10" stroke-miterlimit="10" x1="1024.9" y1="360.3" x2="1077.6" y2="360.3"/>
<g>
	
		<text transform="matrix(1 0 0 1 649.1339 296.0718)" fill="#333333" font-family="'AvenirNextCondensed-Regular'" font-size="22.1598">PRE</text>
</g>
<g>
	<g filter="url(#Shadow_1)">
		<path fill="#FFFFFF" d="M790.9,203.5h-46.6c-1.6,0-2.9-1.3-2.9-2.9V140c0-1.6,1.3-2.9,2.9-2.9h34.2c0.4,11.5,3.3,14.2,15.2,15.2
			v48.3C793.7,202.2,792.4,203.5,790.9,203.5z"/>
	</g>
	<g filter="url(#Shadow_1)">
		<path fill="#FFFFFF" d="M793.7,152.2h-12.4c-1.6,0-2.9-1.3-2.9-2.9v-12.3"/>
	</g>
	<g filter="url(#Shadow_1)">
		<rect x="737" y="177.1" fill="#4D7FC9" width="42" height="15.8"/>
	</g>
	<rect x="739.3" y="180.9" fill="none" width="37.3" height="9.9"/>
	
		<text transform="matrix(1 0 0 1 747.7266 189.3589)" fill="#FFFFFF" font-family="'AvenirNextCondensed-Regular'" font-size="11.8696">JADE</text>
</g>
<g>
	<g filter="url(#Shadow_1)">
		<path fill="#FFFFFF" d="M863.6,226H817c-1.6,0-2.9-1.3-2.9-2.9v-60.6c0-1.6,1.3-2.9,2.9-2.9h34.2c0.4,11.5,3.3,14.2,15.2,15.2
			v48.3C866.5,224.7,865.2,226,863.6,226z"/>
	</g>
	<g filter="url(#Shadow_1)">
		<path fill="#FFFFFF" d="M866.5,174.7h-12.4c-1.6,0-2.9-1.3-2.9-2.9v-12.3"/>
	</g>
	<g filter="url(#Shadow_1)">
		<rect x="809.8" y="199.5" fill="#4D7FC9" width="42" height="15.8"/>
	</g>
	<rect x="812.1" y="203.5" fill="none" width="37.3" height="9.9"/>
	
		<text transform="matrix(1 0 0 1 821.5137 211.8814)" fill="#FFFFFF" font-family="'AvenirNextCondensed-Regular'" font-size="11.8696">SLIM</text>
</g>
<g>
	<g filter="url(#Shadow_1)">
		<path fill="#FFFFFF" d="M827.4,122h-46.6c-1.6,0-2.9-1.3-2.9-2.9V58.6c0-1.6,1.3-2.9,2.9-2.9H815c0.4,11.5,3.3,14.2,15.2,15.2
			v48.3C830.3,120.8,829,122,827.4,122z"/>
	</g>
	<g filter="url(#Shadow_1)">
		<path fill="#FFFFFF" d="M830.3,70.9h-12.4c-1.6,0-2.9-1.3-2.9-2.9V55.7"/>
	</g>
	<g filter="url(#Shadow_1)">
		<rect x="773.6" y="95.6" fill="#4D7FC9" width="42" height="15.8"/>
	</g>
	<rect x="775.9" y="99.6" fill="none" width="37.3" height="9.9"/>
	
		<text transform="matrix(1 0 0 1 783.2676 107.9673)" fill="#FFFFFF" font-family="'AvenirNextCondensed-Regular'" font-size="11.8696">HTML</text>
</g>
<g>
	<g filter="url(#Shadow_1)">
		<path fill="#EB615C" d="M1181.2,185.1H1117c-2.2,0-4-1.8-4-4V97.6c0-2.2,1.8-4,4-4h47.2c0.6,16,4.6,19.7,21.1,21v66.6
			C1185.2,183.3,1183.5,185.1,1181.2,185.1z"/>
	</g>
	<g filter="url(#Shadow_1)">
		<path fill="#EB615C" d="M1185.2,114.5h-17.1c-2.2,0-4-1.8-4-4V93.6"/>
	</g>
	<g filter="url(#Shadow_1)">
		<rect x="1106.9" y="148.6" fill="#353535" width="58" height="21.8"/>
	</g>
	<rect x="1110.2" y="154.1" fill="none" width="51.5" height="13.7"/>
	
		<text transform="matrix(1 0 0 1 1119.7843 165.6528)" fill="#FFFFFF" font-family="'AvenirNextCondensed-Regular'" font-size="16.3747">HTML</text>
</g>
<polyline fill="none" stroke="#5CBAAE" stroke-width="10" stroke-miterlimit="10" points="893.9,118 918.5,142.5 893.9,167.1 "/>
<g id="g3027_5_" transform="matrix(1,0,0,-1,121.49153,1285.4237)">
	<path id="path3029_5_" fill="#4D7FC9" d="M866.4,1143.9c0,2.7-0.9,4.8-2.7,6.7c-1.9,1.9-4.1,2.7-6.7,2.7s-4.8-0.9-6.7-2.7
		c-1.9-1.9-2.7-4.1-2.7-6.7s0.9-4.8,2.7-6.7c1.9-1.9,4.1-2.7,6.7-2.7s4.8,0.9,6.7,2.7C865.5,1139,866.4,1141.2,866.4,1143.9z
		 M885.5,1148v-8.3c0-0.3-0.2-0.6-0.3-0.9c-0.2-0.2-0.4-0.4-0.7-0.5l-6.9-1c-0.5-1.3-1-2.4-1.5-3.4c0.9-1.3,2.2-3,4-5.2
		c0.2-0.3,0.4-0.6,0.4-0.9c0-0.3-0.2-0.6-0.3-0.9c-0.7-0.9-1.9-2.3-3.7-4c-1.8-1.8-3-2.7-3.5-2.7c-0.3,0-0.6,0.2-1,0.3l-5.2,4
		c-1.1-0.5-2.2-1-3.4-1.4c-0.4-3.4-0.7-5.7-1.1-7c-0.2-0.7-0.6-1-1.3-1h-8.3c-0.4,0-0.7,0.2-0.9,0.3c-0.2,0.2-0.4,0.5-0.4,0.8
		l-1,6.9c-1.3,0.4-2.3,0.9-3.4,1.3l-5.3-4c-0.2-0.2-0.5-0.3-0.9-0.3s-0.7,0.2-0.9,0.4c-3.1,2.8-5.2,4.9-6.2,6.3
		c-0.2,0.2-0.2,0.5-0.2,0.9c0,0.3,0.2,0.6,0.3,0.9c0.4,0.5,1,1.3,1.9,2.4c0.9,1.1,1.6,2,2,2.7c-0.7,1.3-1.2,2.4-1.6,3.7l-6.8,1
		c-0.3,0.1-0.6,0.2-0.8,0.5c-0.2,0.2-0.3,0.5-0.3,0.9v8.3c0,0.3,0.2,0.5,0.3,0.9c0.2,0.2,0.4,0.4,0.7,0.5l7,1
		c0.4,1.2,0.9,2.3,1.5,3.4c-1,1.4-2.3,3.1-4,5.2c-0.2,0.3-0.4,0.6-0.4,0.9c0,0.2,0.2,0.5,0.3,0.9c0.7,0.9,1.9,2.2,3.7,4
		c1.8,1.8,3,2.7,3.5,2.7c0.3,0,0.7-0.2,1-0.4l5.2-4c1.1,0.5,2.2,1,3.4,1.4c0.4,3.4,0.7,5.7,1.1,7c0.2,0.7,0.6,1,1.3,1h8.3
		c0.4,0,0.7-0.2,0.9-0.3c0.2-0.2,0.4-0.5,0.4-0.8l1-6.9c1.3-0.4,2.3-0.9,3.4-1.3l5.3,4c0.2,0.2,0.5,0.3,0.9,0.3
		c0.3,0,0.6-0.2,0.9-0.4c3.2-3,5.3-5,6.2-6.3c0.2-0.2,0.2-0.5,0.2-0.8c0-0.3-0.2-0.5-0.3-0.9c-0.4-0.5-1-1.3-1.9-2.4
		c-0.9-1.1-1.6-2-2-2.7c0.7-1.3,1.2-2.4,1.6-3.6l6.8-1c0.3-0.1,0.6-0.2,0.8-0.5C885.4,1148.6,885.5,1148.3,885.5,1148z"/>
</g>
<line fill="none" stroke="#5CBAAE" stroke-width="10" stroke-miterlimit="10" x1="1024.9" y1="130.2" x2="1077.6" y2="130.2"/>
<line fill="none" stroke="#5CBAAE" stroke-width="10" stroke-miterlimit="10" x1="1024.9" y1="153.1" x2="1077.6" y2="153.1"/>
<g>
	
		<text transform="matrix(1 0 0 1 963.0645 88.8775)" fill="#333333" font-family="'AvenirNextCondensed-Regular'" font-size="22.1598">PRE</text>
</g>
<g>
	
		<text transform="matrix(1 0 0 1 949.2148 296.0718)" fill="#333333" font-family="'AvenirNextCondensed-Regular'" font-size="22.1598">POST</text>
</g>
</svg>
