<?xml version="1.0" encoding="utf-8"?>
<!-- Generator: Adobe Illustrator 18.1.0, SVG Export Plug-In . SVG Version: 6.00 Build 0)  -->
<svg version="1.1"
	 xmlns="http://www.w3.org/2000/svg" xmlns:xlink="http://www.w3.org/1999/xlink" x="0px" y="0px" viewBox="0 0 900 300" xml:space="preserve">

<filter  id="Shadow_1" filterUnits="objectBoundingBox">
	<feGaussianBlur  stdDeviation="2" result="blur" in="SourceAlpha"></feGaussianBlur>
	<feOffset  result="offsetBlur" dx="2" dy="2" in="blur"></feOffset>
	<feFlood  result="offsetColor" flood-color="#000000" flood-opacity="0.5"></feFlood>
	<feComposite  in2="offsetBlur" operator="in" result="offsetBlur" in="offsetColor"></feComposite>
	<feMerge>
		<feMergeNode  in="offsetBlur"></feMergeNode>
		<feMergeNode  in="SourceGraphic"></feMergeNode>
	</feMerge>
</filter>
<g>
	<g filter="url(#Shadow_1)">
		<path fill="#FFFFFF" d="M222.5,196.1h-69.6c-2.4,0-4.3-1.9-4.3-4.3v-90.5c0-2.4,1.9-4.3,4.3-4.3H204c0.6,17.3,5,21.3,22.8,22.7
			v72.1C226.8,194.2,224.9,196.1,222.5,196.1z"/>
	</g>
	<g filter="url(#Shadow_1)">
		<path fill="#FFFFFF" d="M226.8,119.6h-18.5c-2.4,0-4.3-1.9-4.3-4.3V97"/>
	</g>
	<g filter="url(#Shadow_1)">
		<rect x="142.1" y="156.6" fill="#B781D3" width="62.8" height="23.6"/>
	</g>
	<rect x="145.6" y="162.5" fill="none" width="55.8" height="14.8"/>
	<text transform="matrix(1 0 0 1 159.5819 175.0508)" fill="#FFFFFF" font-family="Avenir Next Condensed" font-size="17.7345">CSS</text>
</g>
<g>
	<g filter="url(#Shadow_1)">
		<path fill="#FFFFFF" d="M392,196.1h-69.6c-2.4,0-4.3-1.9-4.3-4.3v-90.5c0-2.4,1.9-4.3,4.3-4.3h51.1c0.6,17.3,5,21.3,22.8,22.7
			v72.1C396.3,194.2,394.4,196.1,392,196.1z"/>
	</g>
	<g filter="url(#Shadow_1)">
		<path fill="#FFFFFF" d="M396.3,119.6h-18.5c-2.4,0-4.3-1.9-4.3-4.3V97"/>
	</g>
	<g filter="url(#Shadow_1)">
		<rect x="311.5" y="156.6" fill="#F2800D" width="62.8" height="23.6"/>
	</g>
	<rect x="315" y="162.5" fill="none" width="55.8" height="14.8"/>
	<text transform="matrix(1 0 0 1 335.278 175.0508)" fill="#FFFFFF" font-family="Avenir Next Condensed" font-size="17.7345">JS</text>
</g>
<g>
	<g filter="url(#Shadow_1)">
		<path fill="#FFFFFF" d="M568.3,196.1h-69.6c-2.4,0-4.3-1.9-4.3-4.3v-90.5c0-2.4,1.9-4.3,4.3-4.3h51.1c0.6,17.3,5,21.3,22.8,22.7
			v72.1C572.6,194.2,570.7,196.1,568.3,196.1z"/>
	</g>
	<g filter="url(#Shadow_1)">
		<path fill="#FFFFFF" d="M572.6,119.6h-18.5c-2.4,0-4.3-1.9-4.3-4.3V97"/>
	</g>
	<g filter="url(#Shadow_1)">
		<rect x="487.9" y="156.6" fill="#4D7FC9" width="62.8" height="23.6"/>
	</g>
	<rect x="491.4" y="162.5" fill="none" width="55.8" height="14.8"/>
	<text transform="matrix(1 0 0 1 497.7873 175.0508)" fill="#FFFFFF" font-family="Avenir Next Condensed" font-size="17.7345">HTML</text>
</g>
<g>
	<g filter="url(#Shadow_1)">
		<path fill="#EB615C" d="M850.3,196.1h-69.6c-2.4,0-4.3-1.9-4.3-4.3v-90.5c0-2.4,1.9-4.3,4.3-4.3h51.1c0.6,17.3,5,21.3,22.8,22.7
			v72.1C854.6,194.2,852.7,196.1,850.3,196.1z"/>
	</g>
	<g filter="url(#Shadow_1)">
		<path fill="#EB615C" d="M854.6,119.6h-18.5c-2.4,0-4.3-1.9-4.3-4.3V97"/>
	</g>
	<g filter="url(#Shadow_1)">
		<rect x="769.8" y="156.6" fill="#353535" width="62.8" height="23.6"/>
	</g>
	<rect x="773.3" y="162.5" fill="none" width="55.8" height="14.8"/>
	<text transform="matrix(1 0 0 1 781.7341 175.0508)" fill="#FFFFFF" font-family="Avenir Next Condensed" font-size="17.7345">PAGE</text>
</g>
<g>
	<path fill="none" stroke="#5CBAAE" stroke-width="5" stroke-miterlimit="10" stroke-dasharray="11.9679,11.9679" d="M581.6,235.2
		H135.8c-54.5,0-99-33.4-99-74.2v-24.7c0-40.9,44.6-74.2,99-74.2h445.9c54.5,0,99,33.4,99,74.2V161
		C680.7,201.8,636.1,235.2,581.6,235.2z"/>
</g>
</svg>
