<?xml version="1.0" encoding="utf-8"?>
<!-- Generator: Adobe Illustrator 18.1.0, SVG Export Plug-In . SVG Version: 6.00 Build 0)  -->
<svg version="1.1" 
	 xmlns="http://www.w3.org/2000/svg" xmlns:xlink="http://www.w3.org/1999/xlink" x="0px" y="0px" viewBox="0 0 900 300"
	  xml:space="preserve">

<filter  id="Shadow_1" filterUnits="objectBoundingBox">
	<feGaussianBlur  stdDeviation="2" result="blur" in="SourceAlpha"></feGaussianBlur>
	<feOffset  result="offsetBlur" dx="2" dy="2" in="blur"></feOffset>
	<feFlood  result="offsetColor" flood-color="#000000" flood-opacity="0.5"></feFlood>
	<feComposite  in2="offsetBlur" operator="in" result="offsetBlur" in="offsetColor"></feComposite>
	<feMerge>
		<feMergeNode  in="offsetBlur"></feMergeNode>
		<feMergeNode  in="SourceGraphic"></feMergeNode>
	</feMerge>
</filter>
<g>
	<g filter="url(#Shadow_1)">
		<path fill="#FFFFFF" d="M597.7,196.1h-69.6c-2.4,0-4.3-1.9-4.3-4.3v-90.5c0-2.4,1.9-4.3,4.3-4.3h51.1c0.6,17.3,5,21.3,22.8,22.7
			v72.1C602,194.2,600.1,196.1,597.7,196.1z"/>
	</g>
	<g filter="url(#Shadow_1)">
		<path fill="#FFFFFF" d="M602,119.6h-18.5c-2.4,0-4.3-1.9-4.3-4.3V97"/>
	</g>
	<g filter="url(#Shadow_1)">
		<rect x="517.3" y="156.6" fill="#F2800D" width="62.8" height="23.6"/>
	</g>
	<rect x="520.8" y="162.5" fill="none" width="55.8" height="14.8"/>
	
		<text transform="matrix(1 0 0 1 541.7638 175.0508)" fill="#FFFFFF" font-family="'AvenirNextCondensed-Regular'" font-size="17.7345">JS</text>
</g>
<g>
	<g filter="url(#Shadow_1)">
		<path fill="#FFFFFF" d="M695.7,196.1h-69.6c-2.4,0-4.3-1.9-4.3-4.3v-90.5c0-2.4,1.9-4.3,4.3-4.3h51.1c0.6,17.3,5,21.3,22.8,22.7
			v72.1C700,194.2,698.1,196.1,695.7,196.1z"/>
	</g>
	<g filter="url(#Shadow_1)">
		<path fill="#FFFFFF" d="M700,119.6h-18.5c-2.4,0-4.3-1.9-4.3-4.3V97"/>
	</g>
	<g filter="url(#Shadow_1)">
		<rect x="615.3" y="156.6" fill="#F2800D" width="62.8" height="23.6"/>
	</g>
	<rect x="618.8" y="162.5" fill="none" width="55.8" height="14.8"/>
	
		<text transform="matrix(1 0 0 1 639.7638 175.0508)" fill="#FFFFFF" font-family="'AvenirNextCondensed-Regular'" font-size="17.7345">JS</text>
</g>
<g>
	<g filter="url(#Shadow_1)">
		<path fill="#FFFFFF" d="M793.7,196.1h-69.6c-2.4,0-4.3-1.9-4.3-4.3v-90.5c0-2.4,1.9-4.3,4.3-4.3h51.1c0.6,17.3,5,21.3,22.8,22.7
			v72.1C798,194.2,796.1,196.1,793.7,196.1z"/>
	</g>
	<g filter="url(#Shadow_1)">
		<path fill="#FFFFFF" d="M798,119.6h-18.5c-2.4,0-4.3-1.9-4.3-4.3V97"/>
	</g>
	<g filter="url(#Shadow_1)">
		<rect x="713.3" y="156.6" fill="#F2800D" width="62.8" height="23.6"/>
	</g>
	<rect x="716.8" y="162.5" fill="none" width="55.8" height="14.8"/>
	
		<text transform="matrix(1 0 0 1 737.7638 175.0508)" fill="#FFFFFF" font-family="'AvenirNextCondensed-Regular'" font-size="17.7345">JS</text>
</g>
<g>
	<g filter="url(#Shadow_1)">
		<path fill="#FFFFFF" d="M890.7,196.1h-69.6c-2.4,0-4.3-1.9-4.3-4.3v-90.5c0-2.4,1.9-4.3,4.3-4.3h51.1c0.6,17.3,5,21.3,22.8,22.7
			v72.1C895,194.2,893.1,196.1,890.7,196.1z"/>
	</g>
	<g filter="url(#Shadow_1)">
		<path fill="#FFFFFF" d="M895,119.6h-18.5c-2.4,0-4.3-1.9-4.3-4.3V97"/>
	</g>
	<g filter="url(#Shadow_1)">
		<rect x="810.3" y="156.6" fill="#F2800D" width="62.8" height="23.6"/>
	</g>
	<rect x="813.8" y="162.5" fill="none" width="55.8" height="14.8"/>
	
		<text transform="matrix(1 0 0 1 834.7638 175.0508)" fill="#FFFFFF" font-family="'AvenirNextCondensed-Regular'" font-size="17.7345">JS</text>
</g>
<polyline fill="none" stroke="#5CBAAE" stroke-width="10" stroke-miterlimit="10" points="461,122.4 487.6,149 461,175.6 "/>
<polyline fill="none" stroke="#5CBAAE" stroke-width="10" stroke-miterlimit="10" points="296.2,122.4 322.8,149 296.2,175.6 "/>
<g>
	<g filter="url(#Shadow_1)">
		<path fill="#FFFFFF" d="M116.1,262.4H48.4c-2.3,0-4.2-1.8-4.2-4.2v-88c0-2.3,1.8-4.2,4.2-4.2h49.7c0.6,16.8,4.9,20.7,22.2,22.1
			v70.1C120.3,260.6,118.4,262.4,116.1,262.4z"/>
	</g>
	<g filter="url(#Shadow_1)">
		<path fill="#FFFFFF" d="M120.3,188h-18c-2.3,0-4.2-1.8-4.2-4.2v-17.8"/>
	</g>
	<g filter="url(#Shadow_1)">
		<rect x="37.9" y="224" fill="#F2800D" width="61.1" height="23"/>
	</g>
	<rect x="41.3" y="229.8" fill="none" width="54.3" height="14.4"/>
	
		<text transform="matrix(1 0 0 1 61.7281 241.9661)" fill="#FFFFFF" font-family="'AvenirNextCondensed-Regular'" font-size="17.2481">JS</text>
</g>
<g>
	<g filter="url(#Shadow_1)">
		<path fill="#FFFFFF" d="M73.8,138.4H27.6c-1.6,0-2.9-1.3-2.9-2.9v-60c0-1.6,1.3-2.9,2.9-2.9h33.9c0.4,11.5,3.3,14.1,15.1,15v47.8
			C76.6,137.2,75.4,138.4,73.8,138.4z"/>
	</g>
	<g filter="url(#Shadow_1)">
		<path fill="#FFFFFF" d="M76.6,87.7H64.3c-1.6,0-2.9-1.3-2.9-2.9V72.7"/>
	</g>
	<g filter="url(#Shadow_1)">
		<rect x="20.5" y="112.2" fill="#F2800D" width="41.6" height="15.6"/>
	</g>
	<rect x="22.8" y="116.2" fill="none" width="37" height="9.8"/>
	
		<text transform="matrix(1 0 0 1 36.6901 124.4773)" fill="#FFFFFF" font-family="'AvenirNextCondensed-Regular'" font-size="11.7566">JS</text>
</g>
<g>
	<g filter="url(#Shadow_1)">
		<path fill="#FFFFFF" d="M159.9,100.3H99.2c-2.1,0-3.7-1.7-3.7-3.7V17.6c0-2.1,1.7-3.7,3.7-3.7h44.5c0.5,15.1,4.4,18.6,19.9,19.8
			v62.9C163.6,98.6,162,100.3,159.9,100.3z"/>
	</g>
	<g filter="url(#Shadow_1)">
		<path fill="#FFFFFF" d="M163.6,33.6h-16.1c-2.1,0-3.7-1.7-3.7-3.7v-16"/>
	</g>
	<g filter="url(#Shadow_1)">
		<rect x="89.8" y="65.9" fill="#F2800D" width="54.7" height="20.6"/>
	</g>
	<rect x="92.8" y="71" fill="none" width="48.6" height="12.9"/>
	
		<text transform="matrix(1 0 0 1 111.1262 81.9356)" fill="#FFFFFF" font-family="'AvenirNextCondensed-Regular'" font-size="15.4606">JS</text>
</g>
<g>
	<g filter="url(#Shadow_1)">
		<path fill="#FFFFFF" d="M208.4,238.6h-63.3c-2.2,0-3.9-1.7-3.9-3.9v-82.3c0-2.2,1.7-3.9,3.9-3.9h46.5c0.5,15.7,4.5,19.4,20.7,20.6
			v65.5C212.3,236.9,210.6,238.6,208.4,238.6z"/>
	</g>
	<g filter="url(#Shadow_1)">
		<path fill="#FFFFFF" d="M212.3,169.1h-16.8c-2.2,0-3.9-1.7-3.9-3.9v-16.6"/>
	</g>
	<g filter="url(#Shadow_1)">
		<rect x="135.3" y="202.7" fill="#F2800D" width="57.1" height="21.5"/>
	</g>
	<rect x="138.5" y="208.1" fill="none" width="50.7" height="13.5"/>
	
		<text transform="matrix(1 0 0 1 157.5368 219.4991)" fill="#FFFFFF" font-family="'AvenirNextCondensed-Regular'" font-size="16.1227">JS</text>
</g>
<g>
	<g filter="url(#Shadow_1)">
		<path fill="#FFFFFF" d="M250.4,135.9h-63.3c-2.2,0-3.9-1.7-3.9-3.9V49.7c0-2.2,1.7-3.9,3.9-3.9h46.5c0.5,15.7,4.5,19.4,20.7,20.6
			V132C254.3,134.2,252.6,135.9,250.4,135.9z"/>
	</g>
	<g filter="url(#Shadow_1)">
		<path fill="#FFFFFF" d="M254.3,66.3h-16.8c-2.2,0-3.9-1.7-3.9-3.9V45.8"/>
	</g>
	<g filter="url(#Shadow_1)">
		<rect x="177.3" y="100" fill="#F2800D" width="57.1" height="21.5"/>
	</g>
	<rect x="180.5" y="105.3" fill="none" width="50.7" height="13.5"/>
	
		<text transform="matrix(1 0 0 1 199.5498 116.7592)" fill="#FFFFFF" font-family="'AvenirNextCondensed-Regular'" font-size="16.1227">JS</text>
</g>
<text transform="matrix(1 0 0 1 548.682 86.8959)" fill="#333333" font-family="'AvenirNextCondensed-Regular'" font-size="17.7345">1</text>
<text transform="matrix(1 0 0 1 646.682 86.8959)" fill="#333333" font-family="'AvenirNextCondensed-Regular'" font-size="17.7345">2</text>
<text transform="matrix(1 0 0 1 744.682 86.8959)" fill="#333333" font-family="'AvenirNextCondensed-Regular'" font-size="17.7345">3</text>
<text transform="matrix(1 0 0 1 841.682 86.8959)" fill="#333333" font-family="'AvenirNextCondensed-Regular'" font-size="17.7345">4</text>
<g id="g3027_1_" transform="matrix(1,0,0,-1,121.49153,1285.4237)">
	<path id="path3029_1_" fill="#F2800D" d="M280.6,1137.5c0,3.4-1.2,6.2-3.5,8.6c-2.4,2.4-5.3,3.5-8.6,3.5s-6.2-1.2-8.6-3.5
		c-2.4-2.4-3.5-5.3-3.5-8.6s1.2-6.2,3.5-8.6c2.4-2.4,5.3-3.5,8.6-3.5s6.2,1.2,8.6,3.5C279.4,1131.3,280.6,1134.1,280.6,1137.5z
		 M305,1142.7v-10.6c0-0.4-0.2-0.8-0.4-1.1c-0.2-0.3-0.5-0.5-0.9-0.6l-8.8-1.3c-0.6-1.7-1.3-3.1-1.9-4.3c1.1-1.6,2.8-3.8,5.1-6.6
		c0.3-0.4,0.5-0.8,0.5-1.2s-0.2-0.8-0.4-1.1c-0.9-1.2-2.4-2.9-4.7-5.1c-2.3-2.3-3.8-3.4-4.5-3.4c-0.4,0-0.8,0.2-1.3,0.4l-6.6,5.1
		c-1.4-0.7-2.8-1.3-4.3-1.8c-0.5-4.3-0.9-7.3-1.4-8.9c-0.2-0.9-0.8-1.3-1.7-1.3H263c-0.5,0-0.9,0.2-1.2,0.4c-0.3,0.2-0.5,0.6-0.5,1
		l-1.3,8.8c-1.6,0.5-3,1.1-4.3,1.7l-6.8-5.1c-0.3-0.3-0.7-0.4-1.2-0.4s-0.9,0.2-1.2,0.5c-4,3.6-6.6,6.3-7.9,8
		c-0.2,0.3-0.3,0.7-0.3,1.1s0.2,0.8,0.4,1.1c0.5,0.6,1.3,1.7,2.4,3.1s2,2.6,2.6,3.4c-0.9,1.6-1.5,3.1-2,4.7l-8.7,1.3
		c-0.4,0.1-0.8,0.2-1,0.6c-0.2,0.3-0.4,0.7-0.4,1.1v10.6c0,0.4,0.2,0.7,0.4,1.1c0.2,0.3,0.5,0.5,0.9,0.6l8.9,1.3
		c0.5,1.5,1.1,2.9,1.9,4.4c-1.3,1.8-3,4-5.1,6.6c-0.3,0.4-0.5,0.8-0.5,1.2c0,0.3,0.2,0.7,0.4,1.1c0.9,1.2,2.4,2.8,4.7,5.1
		c2.3,2.3,3.8,3.4,4.5,3.4c0.4,0,0.9-0.2,1.3-0.5l6.6-5.1c1.4,0.7,2.8,1.3,4.3,1.8c0.5,4.3,0.9,7.3,1.4,8.9c0.2,0.9,0.8,1.3,1.7,1.3
		h10.6c0.5,0,0.9-0.2,1.2-0.4s0.5-0.6,0.5-1l1.3-8.8c1.6-0.5,3-1.1,4.3-1.7l6.8,5.1c0.3,0.3,0.6,0.4,1.2,0.4c0.4,0,0.8-0.2,1.2-0.5
		c4.1-3.8,6.8-6.4,7.9-8.1c0.2-0.2,0.3-0.6,0.3-1s-0.2-0.7-0.4-1.1c-0.5-0.6-1.3-1.7-2.4-3.1s-2-2.6-2.6-3.4c0.9-1.6,1.5-3.1,2-4.6
		l8.7-1.3c0.4-0.1,0.8-0.2,1-0.6C304.8,1143.5,305,1143.1,305,1142.7z"/>
</g>
</svg>
