<?xml version="1.0" encoding="utf-8"?>
<!-- Generator: Adobe Illustrator 18.1.0, SVG Export Plug-In . SVG Version: 6.00 Build 0)  -->
<svg version="1.1" 
	 xmlns="http://www.w3.org/2000/svg" xmlns:xlink="http://www.w3.org/1999/xlink" x="0px" y="0px" viewBox="0 0 900 300" xml:space="preserve">


<filter  id="Shadow_1" filterUnits="objectBoundingBox">
	<feGaussianBlur  stdDeviation="2" result="blur" in="SourceAlpha"></feGaussianBlur>
	<feOffset  result="offsetBlur" dx="2" dy="2" in="blur"></feOffset>
	<feFlood  result="offsetColor" flood-color="#000000" flood-opacity="0.5"></feFlood>
	<feComposite  in2="offsetBlur" operator="in" result="offsetBlur" in="offsetColor"></feComposite>
	<feMerge>
		<feMergeNode  in="offsetBlur"></feMergeNode>
		<feMergeNode  in="SourceGraphic"></feMergeNode>
	</feMerge>
</filter>
<g>
	<g filter="url(#Shadow_1)">
		<path fill="#FFFFFF" d="M143.7,196.1H74.1c-2.4,0-4.3-1.9-4.3-4.3v-90.5c0-2.4,1.9-4.3,4.3-4.3h51.1c0.6,17.3,5,21.3,22.8,22.7
			v72.1C148,194.2,146.1,196.1,143.7,196.1z"/>
	</g>
	<g filter="url(#Shadow_1)">
		<path fill="#FFFFFF" d="M148,119.6h-18.5c-2.4,0-4.3-1.9-4.3-4.3V97"/>
	</g>
	<g filter="url(#Shadow_1)">
		<rect x="63.3" y="156.6" fill="#F2800D" width="62.8" height="23.6"/>
	</g>
	<rect x="66.8" y="162.5" fill="none" width="55.8" height="14.8"/>
	
		<text transform="matrix(1 0 0 1 87.7819 175.0508)" fill="#FFFFFF" font-family="'AvenirNextCondensed-Regular'" font-size="17.7345">JS</text>
</g>
<g>
	<g filter="url(#Shadow_1)">
		<path fill="#FFFFFF" d="M241.7,196.1h-69.6c-2.4,0-4.3-1.9-4.3-4.3v-90.5c0-2.4,1.9-4.3,4.3-4.3h51.1c0.6,17.3,5,21.3,22.8,22.7
			v72.1C246,194.2,244.1,196.1,241.7,196.1z"/>
	</g>
	<g filter="url(#Shadow_1)">
		<path fill="#FFFFFF" d="M246,119.6h-18.5c-2.4,0-4.3-1.9-4.3-4.3V97"/>
	</g>
	<g filter="url(#Shadow_1)">
		<rect x="161.3" y="156.6" fill="#F2800D" width="62.8" height="23.6"/>
	</g>
	<rect x="164.8" y="162.5" fill="none" width="55.8" height="14.8"/>
	
		<text transform="matrix(1 0 0 1 185.7819 175.0508)" fill="#FFFFFF" font-family="'AvenirNextCondensed-Regular'" font-size="17.7345">JS</text>
</g>
<g>
	<g filter="url(#Shadow_1)">
		<path fill="#FFFFFF" d="M339.7,196.1h-69.6c-2.4,0-4.3-1.9-4.3-4.3v-90.5c0-2.4,1.9-4.3,4.3-4.3h51.1c0.6,17.3,5,21.3,22.8,22.7
			v72.1C344,194.2,342.1,196.1,339.7,196.1z"/>
	</g>
	<g filter="url(#Shadow_1)">
		<path fill="#FFFFFF" d="M344,119.6h-18.5c-2.4,0-4.3-1.9-4.3-4.3V97"/>
	</g>
	<g filter="url(#Shadow_1)">
		<rect x="259.3" y="156.6" fill="#F2800D" width="62.8" height="23.6"/>
	</g>
	<rect x="262.8" y="162.5" fill="none" width="55.8" height="14.8"/>
	
		<text transform="matrix(1 0 0 1 283.7819 175.0508)" fill="#FFFFFF" font-family="'AvenirNextCondensed-Regular'" font-size="17.7345">JS</text>
</g>
<g>
	<g filter="url(#Shadow_1)">
		<path fill="#FFFFFF" d="M436.7,196.1h-69.6c-2.4,0-4.3-1.9-4.3-4.3v-90.5c0-2.4,1.9-4.3,4.3-4.3h51.1c0.6,17.3,5,21.3,22.8,22.7
			v72.1C441,194.2,439.1,196.1,436.7,196.1z"/>
	</g>
	<g filter="url(#Shadow_1)">
		<path fill="#FFFFFF" d="M441,119.6h-18.5c-2.4,0-4.3-1.9-4.3-4.3V97"/>
	</g>
	<g filter="url(#Shadow_1)">
		<rect x="356.3" y="156.6" fill="#F2800D" width="62.8" height="23.6"/>
	</g>
	<rect x="359.8" y="162.5" fill="none" width="55.8" height="14.8"/>
	
		<text transform="matrix(1 0 0 1 380.7819 175.0508)" fill="#FFFFFF" font-family="'AvenirNextCondensed-Regular'" font-size="17.7345">JS</text>
</g>
<g>
	<g filter="url(#Shadow_1)">
		<path fill="#FFFFFF" d="M533.7,196.1h-69.6c-2.4,0-4.3-1.9-4.3-4.3v-90.5c0-2.4,1.9-4.3,4.3-4.3h51.1c0.6,17.3,5,21.3,22.8,22.7
			v72.1C538,194.2,536.1,196.1,533.7,196.1z"/>
	</g>
	<g filter="url(#Shadow_1)">
		<path fill="#FFFFFF" d="M538,119.6h-18.5c-2.4,0-4.3-1.9-4.3-4.3V97"/>
	</g>
	<g filter="url(#Shadow_1)">
		<rect x="453.3" y="156.6" fill="#F2800D" width="62.8" height="23.6"/>
	</g>
	<rect x="456.8" y="162.5" fill="none" width="55.8" height="14.8"/>
	
		<text transform="matrix(1 0 0 1 477.7819 175.0508)" fill="#FFFFFF" font-family="'AvenirNextCondensed-Regular'" font-size="17.7345">JS</text>
</g>
<g>
	<g filter="url(#Shadow_1)">
		<path fill="#FFFFFF" d="M630.7,196.1h-69.6c-2.4,0-4.3-1.9-4.3-4.3v-90.5c0-2.4,1.9-4.3,4.3-4.3h51.1c0.6,17.3,5,21.3,22.8,22.7
			v72.1C635,194.2,633.1,196.1,630.7,196.1z"/>
	</g>
	<g filter="url(#Shadow_1)">
		<path fill="#FFFFFF" d="M635,119.6h-18.5c-2.4,0-4.3-1.9-4.3-4.3V97"/>
	</g>
	<g filter="url(#Shadow_1)">
		<rect x="550.3" y="156.6" fill="#F2800D" width="62.8" height="23.6"/>
	</g>
	<rect x="553.8" y="162.5" fill="none" width="55.8" height="14.8"/>
	
		<text transform="matrix(1 0 0 1 574.7819 175.0508)" fill="#FFFFFF" font-family="'AvenirNextCondensed-Regular'" font-size="17.7345">JS</text>
</g>
<g>
	<g filter="url(#Shadow_1)">
		<path fill="#EB615C" d="M880.3,196.1h-69.6c-2.4,0-4.3-1.9-4.3-4.3v-90.5c0-2.4,1.9-4.3,4.3-4.3h51.1c0.6,17.3,5,21.3,22.8,22.7
			v72.1C884.6,194.2,882.7,196.1,880.3,196.1z"/>
	</g>
	<g filter="url(#Shadow_1)">
		<path fill="#EB615C" d="M884.6,119.6h-18.5c-2.4,0-4.3-1.9-4.3-4.3V97"/>
	</g>
	<g filter="url(#Shadow_1)">
		<rect x="799.8" y="156.6" fill="#353535" width="62.8" height="23.6"/>
	</g>
	<rect x="803.3" y="162.5" fill="none" width="55.8" height="14.8"/>
	
		<text transform="matrix(1 0 0 1 813.7341 175.0508)" fill="#FFFFFF" font-family="'AvenirNextCondensed-Regular'" font-size="17.7345">PAGE</text>
</g>
<g>
	<path fill="none" stroke="#5CBAAE" stroke-width="5" stroke-miterlimit="10" stroke-dasharray="11.9679,11.9679" d="M594.3,235.2
		H113.5C54.8,235.2,6.8,201.8,6.8,161v-24.7c0-40.9,48.1-74.2,106.7-74.2h480.8C653,62.1,701,95.5,701,136.3V161
		C701.1,201.8,653,235.2,594.3,235.2z"/>
</g>
</svg>
