<?xml version="1.0" encoding="utf-8"?>
<!-- Generator: Adobe Illustrator 18.1.0, SVG Export Plug-In . SVG Version: 6.00 Build 0)  -->
<svg version="1.1" id="Layer_1"
	 xmlns="http://www.w3.org/2000/svg" xmlns:xlink="http://www.w3.org/1999/xlink" x="0px" y="0px" viewBox="0 0 250 450" xml:space="preserve">

<filter  id="Shadow_1" filterUnits="objectBoundingBox">
	<feGaussianBlur  stdDeviation="2" result="blur" in="SourceAlpha"></feGaussianBlur>
	<feOffset  result="offsetBlur" dx="2" dy="2" in="blur"></feOffset>
	<feFlood  result="offsetColor" flood-color="#000000" flood-opacity="0.5"></feFlood>
	<feComposite  in2="offsetBlur" operator="in" result="offsetBlur" in="offsetColor"></feComposite>
	<feMerge>
		<feMergeNode  in="offsetBlur"></feMergeNode>
		<feMergeNode  in="SourceGraphic"></feMergeNode>
	</feMerge>
</filter>
<g>
	<g filter="url(#Shadow_1)">
		<path fill="#FFFFFF" d="M82.3,209.8H59c-0.8,0-1.4-0.6-1.4-1.4v-30.2c0-0.8,0.6-1.4,1.4-1.4h17.1c0.2,5.8,1.7,7.1,7.6,7.6v24.1
			C83.7,209.1,83.1,209.8,82.3,209.8z"/>
	</g>
	<g filter="url(#Shadow_1)">
		<path fill="#FFFFFF" d="M83.7,184.2h-6.2c-0.8,0-1.4-0.6-1.4-1.4v-6.1"/>
	</g>
	<g filter="url(#Shadow_1)">
		<rect x="55.4" y="196.6" fill="#F2800D" width="21" height="7.9"/>
	</g>
	<rect x="56.6" y="198.6" fill="none" width="18.6" height="4.9"/>
	
		<text transform="matrix(1 0 0 1 63.583 202.7433)" fill="#FFFFFF" font-family="'AvenirNextCondensed-Regular'" font-size="5.9245">JS</text>
</g>
<g>
	<g filter="url(#Shadow_1)">
		<path fill="#FFFFFF" d="M81.7,332.8H27c-1.9,0-3.4-1.5-3.4-3.4v-71.1c0-1.9,1.5-3.4,3.4-3.4h40.1c0.5,13.6,3.9,16.7,17.9,17.8
			v56.6C85,331.3,83.5,332.8,81.7,332.8z"/>
	</g>
	<g filter="url(#Shadow_1)">
		<path fill="#FFFFFF" d="M85,272.7H70.5c-1.9,0-3.4-1.5-3.4-3.4V255"/>
	</g>
	<g filter="url(#Shadow_1)">
		<rect x="18.5" y="301.8" fill="#F2800D" width="49.3" height="18.5"/>
	</g>
	<rect x="21.3" y="306.4" fill="none" width="43.8" height="11.6"/>
	
		<text transform="matrix(1 0 0 1 37.752 316.2657)" fill="#FFFFFF" font-family="'AvenirNextCondensed-Regular'" font-size="13.9234">JS</text>
</g>
<g>
	<g filter="url(#Shadow_1)">
		<path fill="#FFFFFF" d="M97.4,409.2h-36c-1.2,0-2.2-1-2.2-2.2v-46.8c0-1.2,1-2.2,2.2-2.2h26.4c0.3,8.9,2.6,11,11.8,11.7V407
			C99.6,408.2,98.6,409.2,97.4,409.2z"/>
	</g>
	<g filter="url(#Shadow_1)">
		<path fill="#FFFFFF" d="M99.6,369.7H90c-1.2,0-2.2-1-2.2-2.2V358"/>
	</g>
	<g filter="url(#Shadow_1)">
		<rect x="55.8" y="388.8" fill="#F2800D" width="32.4" height="12.2"/>
	</g>
	<rect x="57.6" y="391.9" fill="none" width="28.8" height="7.6"/>
	
		<text transform="matrix(1 0 0 1 68.4653 398.3471)" fill="#FFFFFF" font-family="'AvenirNextCondensed-Regular'" font-size="9.1637">JS</text>
</g>
<g>
	<g filter="url(#Shadow_1)">
		<path fill="#FFFFFF" d="M150.9,345.8h-41.5c-1.4,0-2.6-1.1-2.6-2.6v-54c0-1.4,1.1-2.6,2.6-2.6h30.5c0.4,10.3,3,12.7,13.6,13.5v43
			C153.5,344.7,152.4,345.8,150.9,345.8z"/>
	</g>
	<g filter="url(#Shadow_1)">
		<path fill="#FFFFFF" d="M153.5,300.2h-11c-1.4,0-2.6-1.1-2.6-2.6v-10.9"/>
	</g>
	<g filter="url(#Shadow_1)">
		<rect x="103" y="322.3" fill="#F2800D" width="37.4" height="14.1"/>
	</g>
	<rect x="105.1" y="325.8" fill="none" width="33.3" height="8.8"/>
	
		<text transform="matrix(1 0 0 1 117.5896 333.2679)" fill="#FFFFFF" font-family="'AvenirNextCondensed-Regular'" font-size="10.5733">JS</text>
</g>
<g>
	<g filter="url(#Shadow_1)">
		<path fill="#FFFFFF" d="M94.5,95.7H64.2c-1,0-1.9-0.8-1.9-1.9V54.4c0-1,0.8-1.9,1.9-1.9h22.2c0.3,7.5,2.2,9.3,9.9,9.9v31.3
			C96.4,94.8,95.5,95.7,94.5,95.7z"/>
	</g>
	<g filter="url(#Shadow_1)">
		<path fill="#FFFFFF" d="M96.4,62.4h-8c-1,0-1.9-0.8-1.9-1.9v-8"/>
	</g>
	<g filter="url(#Shadow_1)">
		<rect x="59.5" y="78.5" fill="#F2800D" width="27.3" height="10.3"/>
	</g>
	<rect x="61.1" y="81.1" fill="none" width="24.3" height="6.4"/>
	<text transform="matrix(1 0 0 1 70.1864 86.511)" fill="#FFFFFF" font-family="'AvenirNextCondensed-Regular'" font-size="7.71">JS</text>
</g>
<g>
	<g filter="url(#Shadow_1)">
		<path fill="#FFFFFF" d="M162.1,77.2h-39.8c-1.4,0-2.5-1.1-2.5-2.5V23c0-1.4,1.1-2.5,2.5-2.5h29.2c0.3,9.9,2.9,12.2,13,13v41.2
			C164.6,76.1,163.5,77.2,162.1,77.2z"/>
	</g>
	<g filter="url(#Shadow_1)">
		<path fill="#FFFFFF" d="M164.6,33.5H154c-1.4,0-2.5-1.1-2.5-2.5V20.5"/>
	</g>
	<g filter="url(#Shadow_1)">
		<rect x="116.2" y="54.6" fill="#F2800D" width="35.9" height="13.5"/>
	</g>
	<rect x="118.2" y="58" fill="none" width="31.9" height="8.5"/>
	
		<text transform="matrix(1 0 0 1 130.1505 65.17)" fill="#FFFFFF" font-family="'AvenirNextCondensed-Regular'" font-size="10.1391">JS</text>
</g>
<g>
	<g filter="url(#Shadow_1)">
		<path fill="#FFFFFF" d="M148,194.2h-41.5c-1.4,0-2.6-1.1-2.6-2.6v-54c0-1.4,1.1-2.6,2.6-2.6H137c0.4,10.3,3,12.7,13.6,13.5v43
			C150.6,193,149.4,194.2,148,194.2z"/>
	</g>
	<g filter="url(#Shadow_1)">
		<path fill="#FFFFFF" d="M150.6,148.6h-11c-1.4,0-2.6-1.1-2.6-2.6v-10.9"/>
	</g>
	<g filter="url(#Shadow_1)">
		<rect x="100.1" y="170.6" fill="#F2800D" width="37.4" height="14.1"/>
	</g>
	<rect x="102.2" y="174.1" fill="none" width="33.3" height="8.8"/>
	
		<text transform="matrix(1 0 0 1 114.6805 181.6162)" fill="#FFFFFF" font-family="'AvenirNextCondensed-Regular'" font-size="10.5733">JS</text>
</g>
<g>
	<g filter="url(#Shadow_1)">
		<path fill="#FFFFFF" d="M221.5,120.2H180c-1.4,0-2.6-1.1-2.6-2.6v-54c0-1.4,1.1-2.6,2.6-2.6h30.5c0.4,10.3,3,12.7,13.6,13.5v43
			C224,119.1,222.9,120.2,221.5,120.2z"/>
	</g>
	<g filter="url(#Shadow_1)">
		<path fill="#FFFFFF" d="M224,74.6h-11c-1.4,0-2.6-1.1-2.6-2.6V61.1"/>
	</g>
	<g filter="url(#Shadow_1)">
		<rect x="173.5" y="96.7" fill="#F2800D" width="37.4" height="14.1"/>
	</g>
	<rect x="175.6" y="100.2" fill="none" width="33.3" height="8.8"/>
	
		<text transform="matrix(1 0 0 1 188.1389 107.6815)" fill="#FFFFFF" font-family="'AvenirNextCondensed-Regular'" font-size="10.5733">JS</text>
</g>
<text transform="matrix(1 0 0 1 136.7457 423.5028)" fill="#5CBAAE" font-family="'AvenirNextCondensed-Regular'" font-size="300.57">?</text>
</svg>
