<?xml version="1.0" encoding="utf-8"?>
<!-- Generator: Adobe Illustrator 18.1.0, SVG Export Plug-In . SVG Version: 6.00 Build 0)  -->
<svg version="1.1"
	 xmlns="http://www.w3.org/2000/svg" xmlns:xlink="http://www.w3.org/1999/xlink" x="0px" y="0px" viewBox="-169 201 900 300" xml:space="preserve">

<filter id="Shadow_1" filterUnits="objectBoundingBox">
	<feGaussianBlur  stdDeviation="2" result="blur" in="SourceAlpha"></feGaussianBlur>
	<feOffset  result="offsetBlur" dx="2" dy="2" in="blur"></feOffset>
	<feFlood  result="offsetColor" flood-color="#000000" flood-opacity="0.5"></feFlood>
	<feComposite  in2="offsetBlur" operator="in" result="offsetBlur" in="offsetColor"></feComposite>
	<feMerge>
		<feMergeNode  in="offsetBlur"></feMergeNode>
		<feMergeNode  in="SourceGraphic"></feMergeNode>
	</feMerge>
</filter>
<g>
	<g filter="url(#Shadow_1)">
		<path fill="#FFFFFF" d="M-101.5,417H-152c-1.7,0-3.1-1.4-3.1-3.1v-65.6c0-1.7,1.4-3.1,3.1-3.1h37c0.4,12.5,3.6,15.4,16.5,16.5V414
			C-98.4,415.6-99.8,417-101.5,417z"/>
	</g>
	<g filter="url(#Shadow_1)">
		<path fill="#FFFFFF" d="M-98.4,361.5h-13.4c-1.7,0-3.1-1.4-3.1-3.1v-13.3"/>
	</g>
	<g filter="url(#Shadow_1)">
		<rect x="-159.8" y="388.4" fill="#B781D3" width="45.5" height="17.1"/>
	</g>
	<rect x="-157.3" y="392.6" fill="none" width="40.4" height="10.7"/>
	
		<text transform="matrix(1 0 0 1 -148.2193 401.7256)" fill="#FFFFFF" font-family="'AvenirNextCondensed-Regular'" font-size="12.8553">LESS</text>
</g>
<g>
	<g filter="url(#Shadow_1)">
		<path fill="#FFFFFF" d="M-22.7,441.4h-50.5c-1.7,0-3.1-1.4-3.1-3.1v-65.6c0-1.7,1.4-3.1,3.1-3.1h37c0.4,12.5,3.6,15.4,16.5,16.5
			v52.3C-19.6,440-21,441.4-22.7,441.4z"/>
	</g>
	<g filter="url(#Shadow_1)">
		<path fill="#FFFFFF" d="M-19.6,385.9H-33c-1.7,0-3.1-1.4-3.1-3.1v-13.3"/>
	</g>
	<g filter="url(#Shadow_1)">
		<rect x="-81" y="412.7" fill="#B781D3" width="45.5" height="17.1"/>
	</g>
	<rect x="-78.5" y="417" fill="none" width="40.4" height="10.7"/>
	
		<text transform="matrix(1 0 0 1 -79.3047 426.1181)" fill="#FFFFFF" font-family="'AvenirNextCondensed-Regular'" font-size="12.8553">STYLUS</text>
</g>
<g>
	<g filter="url(#Shadow_1)">
		<path fill="#FFFFFF" d="M-61.9,328.8h-50.5c-1.7,0-3.1-1.4-3.1-3.1v-65.6c0-1.7,1.4-3.1,3.1-3.1h37c0.4,12.5,3.6,15.4,16.5,16.5
			v52.3C-58.8,327.5-60.2,328.8-61.9,328.8z"/>
	</g>
	<g filter="url(#Shadow_1)">
		<path fill="#FFFFFF" d="M-58.8,273.4h-13.4c-1.7,0-3.1-1.4-3.1-3.1V257"/>
	</g>
	<g filter="url(#Shadow_1)">
		<rect x="-120.2" y="300.2" fill="#B781D3" width="45.5" height="17.1"/>
	</g>
	<rect x="-117.7" y="304.5" fill="none" width="40.4" height="10.7"/>
	
		<text transform="matrix(1 0 0 1 -109.728 313.5752)" fill="#FFFFFF" font-family="'AvenirNextCondensed-Regular'" font-size="12.8553">SASS</text>
</g>
<g>
	<g filter="url(#Shadow_1)">
		<path fill="#FFFFFF" d="M323.7,397.1h-69.6c-2.4,0-4.3-1.9-4.3-4.3v-90.5c0-2.4,1.9-4.3,4.3-4.3h51.1c0.6,17.3,5,21.3,22.8,22.7
			v72.1C328,395.2,326.1,397.1,323.7,397.1z"/>
	</g>
	<g filter="url(#Shadow_1)">
		<path fill="#FFFFFF" d="M328,320.6h-18.5c-2.4,0-4.3-1.9-4.3-4.3V298"/>
	</g>
	<g filter="url(#Shadow_1)">
		<rect x="243.3" y="357.6" fill="#B781D3" width="62.8" height="23.6"/>
	</g>
	<rect x="246.8" y="363.5" fill="none" width="55.8" height="14.8"/>
	
		<text transform="matrix(1 0 0 1 260.7819 376.0508)" fill="#FFFFFF" font-family="'AvenirNextCondensed-Regular'" font-size="17.7345">CSS</text>
</g>
<g>
	<g filter="url(#Shadow_1)">
		<path fill="#EB615C" d="M711.3,397.1h-69.6c-2.4,0-4.3-1.9-4.3-4.3v-90.5c0-2.4,1.9-4.3,4.3-4.3h51.1c0.6,17.3,5,21.3,22.8,22.7
			v72.1C715.6,395.2,713.7,397.1,711.3,397.1z"/>
	</g>
	<g filter="url(#Shadow_1)">
		<path fill="#EB615C" d="M715.6,320.6h-18.5c-2.4,0-4.3-1.9-4.3-4.3V298"/>
	</g>
	<g filter="url(#Shadow_1)">
		<rect x="630.8" y="357.6" fill="#353535" width="62.8" height="23.6"/>
	</g>
	<rect x="634.3" y="363.5" fill="none" width="55.8" height="14.8"/>
	
		<text transform="matrix(1 0 0 1 648.7341 376.0508)" fill="#FFFFFF" font-family="'AvenirNextCondensed-Regular'" font-size="17.7345">CSS</text>
</g>
<polyline fill="none" stroke="#5CBAAE" stroke-width="10" stroke-miterlimit="10" points="10.1,324.4 36.7,351 10.1,377.6 "/>
<polyline fill="none" stroke="#5CBAAE" stroke-width="10" stroke-miterlimit="10" points="375,324.4 401.6,351 375,377.6 "/>
<polyline fill="none" stroke="#5CBAAE" stroke-width="10" stroke-miterlimit="10" points="181.7,324.4 208.3,351 181.7,377.6 "/>
<g id="g3027" transform="matrix(1,0,0,-1,121.49153,1285.4237)">
	<path id="path3029" fill="#B781D3" d="M359.6,935.5c0,3.4-1.2,6.2-3.5,8.6c-2.4,2.4-5.3,3.5-8.6,3.5s-6.2-1.2-8.6-3.5
		c-2.4-2.4-3.5-5.3-3.5-8.6s1.2-6.2,3.5-8.6c2.4-2.4,5.3-3.5,8.6-3.5s6.2,1.2,8.6,3.5C358.4,929.3,359.6,932.1,359.6,935.5z
		 M384,940.7v-10.6c0-0.4-0.2-0.8-0.4-1.1c-0.2-0.3-0.5-0.5-0.9-0.6l-8.8-1.3c-0.6-1.7-1.3-3.1-1.9-4.3c1.1-1.6,2.8-3.8,5.1-6.6
		c0.3-0.4,0.5-0.8,0.5-1.2s-0.2-0.8-0.4-1.1c-0.9-1.2-2.4-2.9-4.7-5.1c-2.3-2.3-3.8-3.4-4.5-3.4c-0.4,0-0.8,0.2-1.3,0.4l-6.6,5.1
		c-1.4-0.7-2.8-1.3-4.3-1.8c-0.5-4.3-0.9-7.3-1.4-8.9c-0.2-0.9-0.8-1.3-1.7-1.3H342c-0.5,0-0.9,0.2-1.2,0.4c-0.3,0.2-0.5,0.6-0.5,1
		l-1.3,8.8c-1.6,0.5-3,1.1-4.3,1.7l-6.8-5.1c-0.3-0.3-0.7-0.4-1.2-0.4s-0.9,0.2-1.2,0.5c-4,3.6-6.6,6.3-7.9,8
		c-0.2,0.3-0.3,0.7-0.3,1.1s0.2,0.8,0.4,1.1c0.5,0.6,1.3,1.7,2.4,3.1s2,2.6,2.6,3.4c-0.9,1.6-1.5,3.1-2,4.7l-8.7,1.3
		c-0.4,0.1-0.8,0.2-1,0.6c-0.2,0.3-0.4,0.7-0.4,1.1v10.6c0,0.4,0.2,0.7,0.4,1.1c0.2,0.3,0.5,0.5,0.9,0.6l8.9,1.3
		c0.5,1.5,1.1,2.9,1.9,4.4c-1.3,1.8-3,4-5.1,6.6c-0.3,0.4-0.5,0.8-0.5,1.2c0,0.3,0.2,0.7,0.4,1.1c0.9,1.2,2.4,2.8,4.7,5.1
		c2.3,2.3,3.8,3.4,4.5,3.4c0.4,0,0.9-0.2,1.3-0.5l6.6-5.1c1.4,0.7,2.8,1.3,4.3,1.8c0.5,4.3,0.9,7.3,1.4,8.9c0.2,0.9,0.8,1.3,1.7,1.3
		h10.6c0.5,0,0.9-0.2,1.2-0.4s0.5-0.6,0.5-1l1.3-8.8c1.6-0.5,3-1.1,4.3-1.7l6.8,5.1c0.3,0.3,0.6,0.4,1.2,0.4c0.4,0,0.8-0.2,1.2-0.5
		c4.1-3.8,6.8-6.4,7.9-8.1c0.2-0.2,0.3-0.6,0.3-1s-0.2-0.7-0.4-1.1c-0.5-0.6-1.3-1.7-2.4-3.1s-2-2.6-2.6-3.4c0.9-1.6,1.5-3.1,2-4.6
		l8.7-1.3c0.4-0.1,0.8-0.2,1-0.6C383.8,941.5,384,941.1,384,940.7z"/>
</g>
<g id="g3027_1_" transform="matrix(1,0,0,-1,121.49153,1285.4237)">
	<path id="path3029_1_" fill="#B781D3" d="M0.8,935.5c0,3.4-1.2,6.2-3.5,8.6c-2.4,2.4-5.3,3.5-8.6,3.5s-6.2-1.2-8.6-3.5
		c-2.4-2.4-3.5-5.3-3.5-8.6s1.2-6.2,3.5-8.6c2.4-2.4,5.3-3.5,8.6-3.5s6.2,1.2,8.6,3.5C-0.4,929.3,0.8,932.1,0.8,935.5z M25.2,940.7
		v-10.6c0-0.4-0.2-0.8-0.4-1.1c-0.2-0.3-0.5-0.5-0.9-0.6l-8.8-1.3c-0.6-1.7-1.3-3.1-1.9-4.3c1.1-1.6,2.8-3.8,5.1-6.6
		c0.3-0.4,0.5-0.8,0.5-1.2s-0.2-0.8-0.4-1.1c-0.9-1.2-2.4-2.9-4.7-5.1c-2.3-2.3-3.8-3.4-4.5-3.4c-0.4,0-0.8,0.2-1.3,0.4l-6.6,5.1
		c-1.4-0.7-2.8-1.3-4.3-1.8c-0.5-4.3-0.9-7.3-1.4-8.9c-0.2-0.9-0.8-1.3-1.7-1.3h-10.6c-0.5,0-0.9,0.2-1.2,0.4
		c-0.3,0.2-0.5,0.6-0.5,1l-1.3,8.8c-1.6,0.5-3,1.1-4.3,1.7l-6.8-5.1c-0.3-0.3-0.7-0.4-1.2-0.4s-0.9,0.2-1.2,0.5
		c-4,3.6-6.6,6.3-7.9,8c-0.2,0.3-0.3,0.7-0.3,1.1s0.2,0.8,0.4,1.1c0.5,0.6,1.3,1.7,2.4,3.1c1.2,1.4,2,2.6,2.6,3.4
		c-0.9,1.6-1.5,3.1-2,4.7l-8.7,1.3c-0.4,0.1-0.8,0.2-1,0.6c-0.2,0.3-0.4,0.7-0.4,1.1v10.6c0,0.4,0.2,0.7,0.4,1.1
		c0.2,0.3,0.5,0.5,0.9,0.6l8.9,1.3c0.5,1.5,1.1,2.9,1.9,4.4c-1.3,1.8-3,4-5.1,6.6c-0.3,0.4-0.5,0.8-0.5,1.2c0,0.3,0.2,0.7,0.4,1.1
		c0.9,1.2,2.4,2.8,4.7,5.1c2.3,2.3,3.8,3.4,4.5,3.4c0.4,0,0.9-0.2,1.3-0.5l6.6-5.1c1.4,0.7,2.8,1.3,4.3,1.8c0.5,4.3,0.9,7.3,1.4,8.9
		c0.2,0.9,0.8,1.3,1.7,1.3h10.6c0.5,0,0.9-0.2,1.2-0.4s0.5-0.6,0.5-1l1.3-8.8c1.6-0.5,3-1.1,4.3-1.7l6.8,5.1
		c0.3,0.3,0.6,0.4,1.2,0.4c0.4,0,0.8-0.2,1.2-0.5c4.1-3.8,6.8-6.4,7.9-8.1c0.2-0.2,0.3-0.6,0.3-1s-0.2-0.7-0.4-1.1
		c-0.5-0.6-1.3-1.7-2.4-3.1c-1.2-1.4-2-2.6-2.6-3.4c0.9-1.6,1.5-3.1,2-4.6l8.7-1.3c0.4-0.1,0.8-0.2,1-0.6
		C25.1,941.5,25.2,941.1,25.2,940.7z"/>
</g>
<line fill="none" stroke="#5CBAAE" stroke-width="10" stroke-miterlimit="10" x1="542" y1="337.6" x2="599" y2="337.6"/>
<line fill="none" stroke="#5CBAAE" stroke-width="10" stroke-miterlimit="10" x1="542" y1="362.5" x2="599" y2="362.5"/>
<g>
	<text transform="matrix(1 0 0 1 95 292.9001)" fill="#333333" font-family="'AvenirNextCondensed-Regular'" font-size="24">PRE</text>
</g>
<g>
	<text transform="matrix(1 0 0 1 447 292.9002)" fill="#333333" font-family="'AvenirNextCondensed-Regular'" font-size="24">POST</text>
</g>
</svg>
