<?xml version="1.0" encoding="utf-8"?>
<!-- Generator: Adobe Illustrator 18.1.0, SVG Export Plug-In . SVG Version: 6.00 Build 0)  -->
<svg version="1.1" width="128"
	 xmlns="http://www.w3.org/2000/svg" xmlns:xlink="http://www.w3.org/1999/xlink" x="0px" y="0px" viewBox="0 0 128 128" xml:space="preserve">

<path fill="#EC615C" d="M64,0.8C29.1,0.8,0.8,29.1,0.8,64c0,34.9,28.3,63.2,63.2,63.2c34.9,0,63.2-28.3,63.2-63.2
	C127.2,29.1,98.9,0.8,64,0.8"/>
<polygon fill="#FFFFFF" points="57,75.6 56.9,75.6 49,48.8 43.7,48.8 35.8,75.6 35.7,75.6 28.3,48.8 23.5,48.8 33.4,82.4 38.2,82.4 
	46.3,54.9 46.4,54.9 54.5,82.4 59.4,82.4 69.1,48.8 64.4,48.8 "/>
<polygon fill="#FFFFFF" points="80.2,82.4 84.7,82.4 84.7,67.8 97,67.8 97,63.6 84.7,63.6 84.7,53 102.4,53 102.4,48.8 80.2,48.8 
	"/>
<rect x="0.8" y="0.8" fill="none" width="126.3" height="126.3"/>
</svg>
