<?xml version="1.0" encoding="utf-8"?>
<!-- Generator: Adobe Illustrator 18.1.0, SVG Export Plug-In . SVG Version: 6.00 Build 0)  -->
<svg 
	 xmlns="http://www.w3.org/2000/svg" xmlns:xlink="http://www.w3.org/1999/xlink" x="0px" y="0px" viewBox="0 0 900 300" xml:space="preserve">

<filter  id="Shadow_1" filterUnits="objectBoundingBox">
	<feGaussianBlur  stdDeviation="2" result="blur" in="SourceAlpha"></feGaussianBlur>
	<feOffset  result="offsetBlur" dx="2" dy="2" in="blur"></feOffset>
	<feFlood  result="offsetColor" flood-color="#000000" flood-opacity="0.5"></feFlood>
	<feComposite  in2="offsetBlur" operator="in" result="offsetBlur" in="offsetColor"></feComposite>
	<feMerge>
		<feMergeNode  in="offsetBlur"></feMergeNode>
		<feMergeNode  in="SourceGraphic"></feMergeNode>
	</feMerge>
</filter>
<g>
	<g filter="url(#Shadow_1)">
		<path fill="#FFFFFF" d="M597.7,196.1h-69.6c-2.4,0-4.3-1.9-4.3-4.3v-90.5c0-2.4,1.9-4.3,4.3-4.3h51.1c0.6,17.3,5,21.3,22.8,22.7
			v72.1C602,194.2,600.1,196.1,597.7,196.1z"/>
	</g>
	<g filter="url(#Shadow_1)">
		<path fill="#FFFFFF" d="M602,119.6h-18.5c-2.4,0-4.3-1.9-4.3-4.3V97"/>
	</g>
	<g filter="url(#Shadow_1)">
		<rect x="517.3" y="156.6" fill="#F2800D" width="62.8" height="23.6"/>
	</g>
	<rect x="520.8" y="162.5" fill="none" width="55.8" height="14.8"/>
	
		<text transform="matrix(1 0 0 1 541.7638 175.0508)" fill="#FFFFFF" font-family="'AvenirNextCondensed-Regular'" font-size="17.7345">JS</text>
</g>
<g>
	<g filter="url(#Shadow_1)">
		<path fill="#FFFFFF" d="M695.7,196.1h-69.6c-2.4,0-4.3-1.9-4.3-4.3v-90.5c0-2.4,1.9-4.3,4.3-4.3h51.1c0.6,17.3,5,21.3,22.8,22.7
			v72.1C700,194.2,698.1,196.1,695.7,196.1z"/>
	</g>
	<g filter="url(#Shadow_1)">
		<path fill="#FFFFFF" d="M700,119.6h-18.5c-2.4,0-4.3-1.9-4.3-4.3V97"/>
	</g>
	<g filter="url(#Shadow_1)">
		<rect x="615.3" y="156.6" fill="#F2800D" width="62.8" height="23.6"/>
	</g>
	<rect x="618.8" y="162.5" fill="none" width="55.8" height="14.8"/>
	
		<text transform="matrix(1 0 0 1 639.7638 175.0508)" fill="#FFFFFF" font-family="'AvenirNextCondensed-Regular'" font-size="17.7345">JS</text>
</g>
<g>
	<g filter="url(#Shadow_1)">
		<path fill="#FFFFFF" d="M793.7,196.1h-69.6c-2.4,0-4.3-1.9-4.3-4.3v-90.5c0-2.4,1.9-4.3,4.3-4.3h51.1c0.6,17.3,5,21.3,22.8,22.7
			v72.1C798,194.2,796.1,196.1,793.7,196.1z"/>
	</g>
	<g filter="url(#Shadow_1)">
		<path fill="#FFFFFF" d="M798,119.6h-18.5c-2.4,0-4.3-1.9-4.3-4.3V97"/>
	</g>
	<g filter="url(#Shadow_1)">
		<rect x="713.3" y="156.6" fill="#F2800D" width="62.8" height="23.6"/>
	</g>
	<rect x="716.8" y="162.5" fill="none" width="55.8" height="14.8"/>
	
		<text transform="matrix(1 0 0 1 737.7638 175.0508)" fill="#FFFFFF" font-family="'AvenirNextCondensed-Regular'" font-size="17.7345">JS</text>
</g>
<g>
	<g filter="url(#Shadow_1)">
		<path fill="#FFFFFF" d="M890.7,196.1h-69.6c-2.4,0-4.3-1.9-4.3-4.3v-90.5c0-2.4,1.9-4.3,4.3-4.3h51.1c0.6,17.3,5,21.3,22.8,22.7
			v72.1C895,194.2,893.1,196.1,890.7,196.1z"/>
	</g>
	<g filter="url(#Shadow_1)">
		<path fill="#FFFFFF" d="M895,119.6h-18.5c-2.4,0-4.3-1.9-4.3-4.3V97"/>
	</g>
	<g filter="url(#Shadow_1)">
		<rect x="810.3" y="156.6" fill="#F2800D" width="62.8" height="23.6"/>
	</g>
	<rect x="813.8" y="162.5" fill="none" width="55.8" height="14.8"/>
	
		<text transform="matrix(1 0 0 1 834.7638 175.0508)" fill="#FFFFFF" font-family="'AvenirNextCondensed-Regular'" font-size="17.7345">JS</text>
</g>
<polyline fill="none" stroke="#5CBAAE" stroke-width="10" stroke-miterlimit="10" points="444,122.4 470.6,149 444,175.6 "/>
<polyline fill="none" stroke="#5CBAAE" stroke-width="10" stroke-miterlimit="10" points="250.2,122.4 276.8,149 250.2,175.6 "/>
<text transform="matrix(1 0 0 1 1.220703e-04 156.6)" fill="#333333" font-family="'AvenirNextCondensed-DemiBold'" font-size="45">I need xyz.js</text>
<polygon fill="#F2800D" points="394,129.5 361,162.5 327.9,129.5 345.6,129.5 345.6,98.5 376.6,98.5 376.6,129.5 "/>
<rect x="322" y="162.5" fill="#F2800D" width="76" height="14.8"/>
</svg>
