<?xml version="1.0" encoding="utf-8"?>
<!-- Generator: Adobe Illustrator 18.1.0, SVG Export Plug-In . SVG Version: 6.00 Build 0)  -->
<svg version="1.1"
	 xmlns="http://www.w3.org/2000/svg" xmlns:xlink="http://www.w3.org/1999/xlink" x="0px" y="0px" viewBox="-169 201 900 300" xml:space="preserve">

<filter  id="Shadow_1" filterUnits="objectBoundingBox">
	<feGaussianBlur  stdDeviation="2" result="blur" in="SourceAlpha"></feGaussianBlur>
	<feOffset  result="offsetBlur" dx="2" dy="2" in="blur"></feOffset>
	<feFlood  result="offsetColor" flood-color="#000000" flood-opacity="0.5"></feFlood>
	<feComposite  in2="offsetBlur" operator="in" result="offsetBlur" in="offsetColor"></feComposite>
	<feMerge>
		<feMergeNode  in="offsetBlur"></feMergeNode>
		<feMergeNode  in="SourceGraphic"></feMergeNode>
	</feMerge>
</filter>
<g>
	<g filter="url(#Shadow_1)">
		<path fill="#FFFFFF" d="M-64.1,346.8h-55.3c-1.9,0-3.4-1.5-3.4-3.4v-71.9c0-1.9,1.5-3.4,3.4-3.4h40.6c0.5,13.7,4,16.9,18.1,18
			v57.3C-60.7,345.3-62.2,346.8-64.1,346.8z"/>
	</g>
	<g filter="url(#Shadow_1)">
		<path fill="#FFFFFF" d="M-60.7,286h-14.7c-1.9,0-3.4-1.5-3.4-3.4v-14.5"/>
	</g>
	<g filter="url(#Shadow_1)">
		<rect x="-128" y="315.4" fill="#F2800D" width="49.9" height="18.8"/>
	</g>
	<rect x="-125.2" y="320.1" fill="none" width="44.3" height="11.8"/>
	
		<text transform="matrix(1 0 0 1 -121.2319 330.0708)" fill="#FFFFFF" font-family="'AvenirNextCondensed-Regular'" font-size="14.0907">COFFEE</text>
</g>
<g>
	<g filter="url(#Shadow_1)">
		<path fill="#EB615C" d="M610,401.5h-64.3c-2.2,0-4-1.8-4-4V314c0-2.2,1.8-4,4-4H593c0.6,16,4.6,19.7,21.1,21v66.6
			C614,399.8,612.3,401.5,610,401.5z"/>
	</g>
	<g filter="url(#Shadow_1)">
		<path fill="#EB615C" d="M614,330.9h-17.1c-2.2,0-4-1.8-4-4V310"/>
	</g>
	<g filter="url(#Shadow_1)">
		<rect x="535.7" y="365" fill="#353535" width="58" height="21.8"/>
	</g>
	<rect x="538.9" y="370.5" fill="none" width="51.5" height="13.7"/>
	
		<text transform="matrix(1 0 0 1 557.8126 382.0851)" fill="#FFFFFF" font-family="'AvenirNextCondensed-Regular'" font-size="16.3747">JS</text>
</g>
<g>
	<g filter="url(#Shadow_1)">
		<path fill="#FFFFFF" d="M25.9,313.4h-61c-2.1,0-3.8-1.7-3.8-3.8v-79.3c0-2.1,1.7-3.8,3.8-3.8H9.7c0.5,15.2,4.4,18.7,20,19.9v63.1
			C29.6,311.8,28,313.4,25.9,313.4z"/>
	</g>
	<g filter="url(#Shadow_1)">
		<path fill="#FFFFFF" d="M29.6,246.4H13.4c-2.1,0-3.8-1.7-3.8-3.8v-16"/>
	</g>
	<g filter="url(#Shadow_1)">
		<rect x="-44.6" y="278.8" fill="#F2800D" width="55" height="20.7"/>
	</g>
	<rect x="-41.5" y="284" fill="none" width="48.9" height="13"/>
	
		<text transform="matrix(1 0 0 1 -23.1187 294.9917)" fill="#FFFFFF" font-family="'AvenirNextCondensed-Regular'" font-size="15.5312">JS</text>
</g>
<g>
	<g filter="url(#Shadow_1)">
		<path fill="#FFFFFF" d="M16.3,462.8h-59.8c-2,0-3.7-1.7-3.7-3.7v-77.7c0-2,1.7-3.7,3.7-3.7H0.3c0.5,14.8,4.3,18.2,19.5,19.5v61.9
			C20,461.2,18.3,462.8,16.3,462.8z"/>
	</g>
	<g filter="url(#Shadow_1)">
		<path fill="#FFFFFF" d="M20,397.1H4.1c-2,0-3.7-1.7-3.7-3.7v-15.7"/>
	</g>
	<g filter="url(#Shadow_1)">
		<rect x="-52.7" y="429" fill="#B781D3" width="53.9" height="20.2"/>
	</g>
	<rect x="-49.7" y="433.9" fill="none" width="47.8" height="12.7"/>
	
		<text transform="matrix(1 0 0 1 -38.9907 444.7305)" fill="#FFFFFF" font-family="'AvenirNextCondensed-Regular'" font-size="15.2208">LESS</text>
</g>
<g>
	<g filter="url(#Shadow_1)">
		<path fill="#FFFFFF" d="M113.6,324.7H53.8c-2,0-3.7-1.7-3.7-3.7v-77.7c0-2,1.7-3.7,3.7-3.7h43.8c0.5,14.8,4.3,18.2,19.5,19.5v61.9
			C117.2,323.2,115.6,324.7,113.6,324.7z"/>
	</g>
	<g filter="url(#Shadow_1)">
		<path fill="#FFFFFF" d="M117.2,259.1h-15.9c-2,0-3.7-1.7-3.7-3.7v-15.7"/>
	</g>
	<g filter="url(#Shadow_1)">
		<rect x="44.5" y="290.9" fill="#B781D3" width="53.9" height="20.2"/>
	</g>
	<rect x="47.5" y="296" fill="none" width="47.8" height="12.7"/>
	
		<text transform="matrix(1 0 0 1 56.9233 306.7163)" fill="#FFFFFF" font-family="'AvenirNextCondensed-Regular'" font-size="15.2208">SASS</text>
</g>
<g>
	<g filter="url(#Shadow_1)">
		<path fill="#EB615C" d="M504,399.3h-64.3c-2.2,0-4-1.8-4-4v-83.6c0-2.2,1.8-4,4-4h47.2c0.6,16,4.6,19.7,21.1,21v66.6
			C507.9,397.5,506.2,399.3,504,399.3z"/>
	</g>
	<g filter="url(#Shadow_1)">
		<path fill="#EB615C" d="M507.9,328.6h-17.1c-2.2,0-4-1.8-4-4v-16.9"/>
	</g>
	<g filter="url(#Shadow_1)">
		<rect x="429.6" y="362.8" fill="#353535" width="58" height="21.8"/>
	</g>
	<rect x="432.9" y="368.3" fill="none" width="51.5" height="13.7"/>
	
		<text transform="matrix(1 0 0 1 446.2075 379.8467)" fill="#FFFFFF" font-family="'AvenirNextCondensed-Regular'" font-size="16.3747">CSS</text>
</g>
<polyline fill="none" stroke="#5CBAAE" stroke-width="10" stroke-miterlimit="10" points="168,332.2 192.5,356.7 168,381.3 "/>
<g id="g3027_4_" transform="matrix(1,0,0,-1,121.49153,1285.4237)">
	<path id="path3029_4_" fill="#EB615C" d="M150.5,929.7c0,2.7-0.9,4.8-2.7,6.7c-1.9,1.9-4.1,2.7-6.7,2.7s-4.8-0.9-6.7-2.7
		c-1.9-1.9-2.7-4.1-2.7-6.7s0.9-4.8,2.7-6.7c1.9-1.9,4.1-2.7,6.7-2.7s4.8,0.9,6.7,2.7C149.5,924.8,150.5,927,150.5,929.7z
		 M169.6,933.8v-8.3c0-0.3-0.2-0.6-0.3-0.9c-0.2-0.2-0.4-0.4-0.7-0.5l-6.9-1c-0.5-1.3-1-2.4-1.5-3.4c0.9-1.3,2.2-3,4-5.2
		c0.2-0.3,0.4-0.6,0.4-0.9c0-0.3-0.2-0.6-0.3-0.9c-0.7-0.9-1.9-2.3-3.7-4c-1.8-1.8-3-2.7-3.5-2.7c-0.3,0-0.6,0.2-1,0.3l-5.2,4
		c-1.1-0.5-2.2-1-3.4-1.4c-0.4-3.4-0.7-5.7-1.1-7c-0.2-0.7-0.6-1-1.3-1h-8.3c-0.4,0-0.7,0.2-0.9,0.3c-0.2,0.2-0.4,0.5-0.4,0.8
		l-1,6.9c-1.3,0.4-2.3,0.9-3.4,1.3l-5.3-4c-0.2-0.2-0.5-0.3-0.9-0.3s-0.7,0.2-0.9,0.4c-3.1,2.8-5.2,4.9-6.2,6.3
		c-0.2,0.2-0.2,0.5-0.2,0.9c0,0.3,0.2,0.6,0.3,0.9c0.4,0.5,1,1.3,1.9,2.4c0.9,1.1,1.6,2,2,2.7c-0.7,1.3-1.2,2.4-1.6,3.7l-6.8,1
		c-0.3,0.1-0.6,0.2-0.8,0.5c-0.2,0.2-0.3,0.5-0.3,0.9v8.3c0,0.3,0.2,0.5,0.3,0.9c0.2,0.2,0.4,0.4,0.7,0.5l7,1
		c0.4,1.2,0.9,2.3,1.5,3.4c-1,1.4-2.3,3.1-4,5.2c-0.2,0.3-0.4,0.6-0.4,0.9c0,0.2,0.2,0.5,0.3,0.9c0.7,0.9,1.9,2.2,3.7,4
		c1.8,1.8,3,2.7,3.5,2.7c0.3,0,0.7-0.2,1-0.4l5.2-4c1.1,0.5,2.2,1,3.4,1.4c0.4,3.4,0.7,5.7,1.1,7c0.2,0.7,0.6,1,1.3,1h8.3
		c0.4,0,0.7-0.2,0.9-0.3c0.2-0.2,0.4-0.5,0.4-0.8l1-6.9c1.3-0.4,2.3-0.9,3.4-1.3l5.3,4c0.2,0.2,0.5,0.3,0.9,0.3
		c0.3,0,0.6-0.2,0.9-0.4c3.2-3,5.3-5,6.2-6.3c0.2-0.2,0.2-0.5,0.2-0.8s-0.2-0.5-0.3-0.9c-0.4-0.5-1-1.3-1.9-2.4
		c-0.9-1.1-1.6-2-2-2.7c0.7-1.3,1.2-2.4,1.6-3.6l6.8-1c0.3-0.1,0.6-0.2,0.8-0.5C169.5,934.4,169.6,934.1,169.6,933.8z"/>
</g>
<line fill="none" stroke="#5CBAAE" stroke-width="10" stroke-miterlimit="10" x1="327.7" y1="344.3" x2="380.3" y2="344.3"/>
<line fill="none" stroke="#5CBAAE" stroke-width="10" stroke-miterlimit="10" x1="327.7" y1="367.3" x2="380.3" y2="367.3"/>
<g>
	
		<text transform="matrix(1 0 0 1 242.1338 303.0718)" fill="#333333" font-family="'AvenirNextCondensed-Regular'" font-size="22.1598">TASK</text>
</g>
<g>
	<g filter="url(#Shadow_1)">
		<path fill="#FFFFFF" d="M-75.3,454.1h-59.8c-2,0-3.7-1.7-3.7-3.7v-77.7c0-2,1.7-3.7,3.7-3.7h43.8c0.5,14.8,4.3,18.2,19.5,19.5
			v61.9C-71.6,452.5-73.3,454.1-75.3,454.1z"/>
	</g>
	<g filter="url(#Shadow_1)">
		<path fill="#FFFFFF" d="M-71.6,388.4h-15.9c-2,0-3.7-1.7-3.7-3.7V369"/>
	</g>
	<g filter="url(#Shadow_1)">
		<rect x="-144.3" y="420.3" fill="#4D7FC9" width="53.9" height="20.2"/>
	</g>
	<rect x="-141.4" y="425.3" fill="none" width="47.8" height="12.7"/>
	
		<text transform="matrix(1 0 0 1 -130.6099 436.0625)" fill="#FFFFFF" font-family="'AvenirNextCondensed-Regular'" font-size="15.2208">JADE</text>
</g>
<g>
	<g filter="url(#Shadow_1)">
		<path fill="#FFFFFF" d="M108.7,427.9H49c-2,0-3.7-1.7-3.7-3.7v-77.7c0-2,1.7-3.7,3.7-3.7h43.8c0.5,14.8,4.3,18.2,19.5,19.5v61.9
			C112.4,426.4,110.8,427.9,108.7,427.9z"/>
	</g>
	<g filter="url(#Shadow_1)">
		<path fill="#FFFFFF" d="M112.4,362.3H96.5c-2,0-3.7-1.7-3.7-3.7v-15.7"/>
	</g>
	<g filter="url(#Shadow_1)">
		<rect x="39.7" y="394.1" fill="#4D7FC9" width="53.9" height="20.2"/>
	</g>
	<rect x="42.7" y="399.2" fill="none" width="47.8" height="12.7"/>
	
		<text transform="matrix(1 0 0 1 52.1147 409.9141)" fill="#FFFFFF" font-family="'AvenirNextCondensed-Regular'" font-size="15.2208">HTML</text>
</g>
<g>
	<g filter="url(#Shadow_1)">
		<path fill="#EB615C" d="M712,399.3h-64.3c-2.2,0-4-1.8-4-4v-83.6c0-2.2,1.8-4,4-4h47.2c0.6,16,4.6,19.7,21.1,21v66.6
			C716,397.5,714.2,399.3,712,399.3z"/>
	</g>
	<g filter="url(#Shadow_1)">
		<path fill="#EB615C" d="M716,328.6h-17.1c-2.2,0-4-1.8-4-4v-16.9"/>
	</g>
	<g filter="url(#Shadow_1)">
		<rect x="637.7" y="362.8" fill="#353535" width="58" height="21.8"/>
	</g>
	<rect x="640.9" y="368.3" fill="none" width="51.5" height="13.7"/>
	
		<text transform="matrix(1 0 0 1 650.5629 379.8471)" fill="#FFFFFF" font-family="'AvenirNextCondensed-Regular'" font-size="16.3747">HTML</text>
</g>
</svg>
